<?xml version="1.0" encoding="UTF-8" standalone="no" ?>
<!DOCTYPE svg PUBLIC "-//W3C//DTD SVG 1.1//EN" "http://www.w3.org/Graphics/SVG/1.1/DTD/svg11.dtd">
<svg xmlns="http://www.w3.org/2000/svg" xmlns:xlink="http://www.w3.org/1999/xlink" version="1.1" width="1200" height="628" viewBox="0 0 1200 628" xml:space="preserve">
<desc>Created with Fabric.js 5.2.4</desc>
<defs>
</defs>
<g transform="matrix(0 0 0 0 0 0)" id="356d8852-1561-4600-87e5-c0f03099c16a"  >
</g>
<g transform="matrix(1 0 0 1 600 314)" id="f12384f7-de8c-48dd-b527-67b95d4aa6b8"  >
<rect style="stroke: none; stroke-width: 1; stroke-dasharray: none; stroke-linecap: butt; stroke-dashoffset: 0; stroke-linejoin: miter; stroke-miterlimit: 4; fill: rgb(255,255,255); fill-rule: nonzero; opacity: 1; visibility: hidden;" vector-effect="non-scaling-stroke"  x="-600" y="-314" rx="0" ry="0" width="1200" height="628" />
</g>
<g transform="matrix(0.58 0 0 0.16 598.89 316.81)"  >
<g style="" vector-effect="non-scaling-stroke"   >
		<g transform="matrix(1 0 0 1 0 0)"  >
<rect style="stroke: none; stroke-width: 1; stroke-dasharray: none; stroke-linecap: butt; stroke-dashoffset: 0; stroke-linejoin: miter; stroke-miterlimit: 4; fill: rgb(30,27,75); fill-rule: nonzero; opacity: 1;" vector-effect="non-scaling-stroke"  x="-750" y="-750" rx="0" ry="0" width="1500" height="1500" />
</g>
		<g transform="matrix(3.36 0 0 3.36 -116.24 0.65)"  >
<path style="stroke: none; stroke-width: 1; stroke-dasharray: none; stroke-linecap: butt; stroke-dashoffset: 0; stroke-linejoin: miter; stroke-miterlimit: 4; fill: rgb(147,51,234); fill-rule: nonzero; opacity: 1;" vector-effect="non-scaling-stroke"  transform=" translate(-116.22, 17)" d="M 16.6 -13.05 L 12.35 -13.05 L 7.85 -23.75 Q 6.85 -26.15 6.03 -27.68 Q 5.2 -29.2 4.2 -30 L 4.2 -30 Q 2.95 -31 2.55 -31.45 Q 2.15 -31.9 2.15 -32.4 L 2.15 -32.4 Q 2.15 -32.85 3 -33.38 Q 3.85 -33.9 4.95 -34.3 Q 6.05 -34.7 6.8 -34.7 L 6.8 -34.7 Q 8.85 -34.7 10.23 -33.02 Q 11.6 -31.35 12.6 -28.5 L 12.6 -28.5 L 16.3 -18.1 L 14.8 -17 L 19.8 -24.7 Q 21.2 -26.8 21.53 -28.35 Q 21.85 -29.9 21.95 -30.95 L 21.95 -30.95 Q 22.05 -31.85 23.05 -32.52 Q 24.05 -33.2 25.4 -33.7 Q 26.75 -34.2 27.98 -34.45 Q 29.2 -34.7 29.8 -34.7 L 29.8 -34.7 Q 30.7 -34.7 30.7 -33.9 L 30.7 -33.9 Q 30.7 -33.4 30.3 -32.65 Q 29.9 -31.9 29.2 -30.95 L 29.2 -30.95 L 16.6 -13.05 Z M 16.15 0.4 L 12.1 0.4 Q 11.2 0.4 10.85 -0.4 Q 10.5 -1.2 10.5 -2.55 L 10.5 -2.55 Q 10.5 -3.55 10.65 -4.8 L 10.65 -4.8 L 12 -16.95 L 17.95 -16.05 L 16.15 0.4 Z M 34.8 0.8 L 31.3 0.8 Q 30.45 0.8 30.2 -0.18 Q 29.95 -1.15 29.95 -2.2 L 29.95 -2.2 Q 29.95 -4 30.12 -5.4 Q 30.3 -6.8 30.5 -8.5 L 30.5 -8.5 L 32.3 -24.55 L 35.8 -24.55 Q 36.8 -24.55 37.1 -23.45 Q 37.4 -22.35 37.4 -20.95 L 37.4 -20.95 Q 37.4 -20.25 37.3 -19.48 Q 37.2 -18.7 37 -17.1 L 37 -17.1 L 36.05 -8.95 Q 35.75 -6.35 35.5 -4.6 Q 35.25 -2.85 35.1 -1.6 Q 34.95 -0.35 34.8 0.8 L 34.8 0.8 Z M 35.7 -27.4 L 35.7 -27.4 Q 34.3 -27.4 33.27 -28.35 Q 32.25 -29.3 32.25 -30.85 L 32.25 -30.85 Q 32.25 -32.7 33.45 -33.73 Q 34.65 -34.75 36.2 -34.75 L 36.2 -34.75 Q 37.65 -34.75 38.62 -33.9 Q 39.6 -33.05 39.6 -31.35 L 39.6 -31.35 Q 39.6 -29.65 38.45 -28.53 Q 37.3 -27.4 35.7 -27.4 Z M 48.55 0.8 L 48.55 0.8 Q 44.7 0.8 42.6 -1.63 Q 40.5 -4.05 40.5 -8.3 L 40.5 -8.3 Q 40.5 -11.85 41.5 -14.8 Q 42.5 -17.75 44.3 -19.95 Q 46.1 -22.15 48.52 -23.35 Q 50.95 -24.55 53.8 -24.55 L 53.8 -24.55 Q 57.2 -24.55 59 -23.1 Q 60.8 -21.65 60.8 -18.95 L 60.8 -18.95 Q 60.8 -16.2 58.97 -14.15 Q 57.15 -12.1 53.72 -10.65 Q 50.3 -9.2 45.55 -8.2 L 45.55 -8.2 L 44.9 -11.2 Q 47.65 -11.55 49.95 -12.4 Q 52.25 -13.25 53.65 -14.68 Q 55.05 -16.1 55.05 -18.05 L 55.05 -18.05 Q 55.05 -19.4 54.52 -20.1 Q 54 -20.8 52.65 -20.8 L 52.65 -20.8 Q 50.6 -20.8 49.17 -19.3 Q 47.75 -17.8 47.02 -15.4 Q 46.3 -13 46.3 -10.3 L 46.3 -10.3 Q 46.3 -6.65 47.42 -5.43 Q 48.55 -4.2 50.75 -4.2 L 50.75 -4.2 Q 53.05 -4.2 54.77 -4.93 Q 56.5 -5.65 57.75 -6.45 L 57.75 -6.45 Q 58.15 -6.7 58.45 -6.85 Q 58.75 -7 58.95 -7 L 58.95 -7 Q 59.2 -7 59.35 -6.8 Q 59.5 -6.6 59.5 -6.35 L 59.5 -6.35 Q 59.5 -5.45 58.7 -4.25 Q 57.9 -3.05 56.42 -1.9 Q 54.95 -0.75 52.95 0.03 Q 50.95 0.8 48.55 0.8 Z M 69.14 0.7 L 65.64 0.7 Q 64.74 0.7 64.24 -0.4 Q 63.74 -1.5 63.79 -2.95 L 63.79 -2.95 Q 63.84 -4.65 64.09 -7 Q 64.34 -9.35 64.59 -11.65 L 64.59 -11.65 L 65.99 -23.45 Q 66.29 -25.7 66.14 -27.45 Q 65.99 -29.2 65.74 -30.55 Q 65.49 -31.9 65.49 -32.85 L 65.49 -32.85 Q 65.49 -33.4 66.37 -33.83 Q 67.24 -34.25 68.39 -34.52 Q 69.54 -34.8 70.34 -34.8 L 70.34 -34.8 Q 71.19 -34.8 71.84 -33.58 Q 72.49 -32.35 72.49 -30.75 L 72.49 -30.75 Q 72.49 -30.4 72.39 -28.8 Q 72.29 -27.2 71.99 -25.15 L 71.99 -25.15 L 70.39 -13.65 Q 69.89 -10.05 69.69 -6.48 Q 69.49 -2.9 69.14 0.7 L 69.14 0.7 Z M 80.09 0.8 L 80.09 0.8 Q 77.39 0.8 76.22 -1.4 Q 75.04 -3.6 75.04 -7.85 L 75.04 -7.85 Q 75.04 -11.5 76.06 -14.55 Q 77.09 -17.6 78.94 -19.83 Q 80.79 -22.05 83.24 -23.28 Q 85.69 -24.5 88.54 -24.5 L 88.54 -24.5 Q 90.29 -24.5 92.02 -23.93 Q 93.74 -23.35 94.99 -22.75 L 94.99 -22.75 L 93.39 -17.85 Q 92.04 -18.75 90.56 -19.4 Q 89.09 -20.05 87.87 -20.4 Q 86.64 -20.75 85.99 -20.75 L 85.99 -20.75 Q 84.54 -20.75 83.34 -19.38 Q 82.14 -18 81.42 -15.58 Q 80.69 -13.15 80.69 -10 L 80.69 -10 Q 80.69 -7.1 81.12 -5.6 Q 81.54 -4.1 82.49 -4.1 L 82.49 -4.1 Q 83.29 -4.1 84.97 -5.58 Q 86.64 -7.05 88.87 -10.5 Q 91.09 -13.95 93.54 -19.85 L 93.54 -19.85 L 94.99 -15.4 Q 92.34 -9.4 89.74 -5.85 Q 87.14 -2.3 84.72 -0.75 Q 82.29 0.8 80.09 0.8 Z M 96.79 0.5 L 93.29 0.5 Q 92.74 0.5 92.34 -0.13 Q 91.94 -0.75 91.74 -1.65 Q 91.54 -2.55 91.54 -3.3 L 91.54 -3.3 Q 91.54 -4.55 91.97 -6.15 Q 92.39 -7.75 93.04 -10.2 L 93.04 -10.2 L 94.04 -13.95 L 92.59 -15.55 L 93.14 -20.8 L 93.84 -21.65 L 94.24 -34.8 L 98.14 -34.8 Q 98.89 -34.8 99.37 -34.15 Q 99.84 -33.5 100.06 -32.63 Q 100.29 -31.75 100.29 -30.95 L 100.29 -30.95 Q 100.29 -30.45 100.24 -29.83 Q 100.19 -29.2 100.04 -28.13 Q 99.89 -27.05 99.59 -25.15 L 99.59 -25.15 L 97.94 -13.65 Q 97.59 -11.25 97.34 -8.75 Q 97.09 -6.25 96.97 -3.9 Q 96.84 -1.55 96.79 0.5 L 96.79 0.5 Z M 127.99 0.4 L 123.99 0.4 Q 123.19 0.4 122.84 -0.73 Q 122.48 -1.85 122.48 -3.2 L 122.48 -3.2 Q 122.48 -4.55 122.66 -6.23 Q 122.84 -7.9 123.19 -10.8 L 123.19 -10.8 L 125.34 -29.8 L 118.64 -28.35 Q 118.04 -28.25 117.61 -28.18 Q 117.19 -28.1 116.98 -28.1 L 116.98 -28.1 Q 116.44 -28.1 116.19 -28.45 Q 115.94 -28.8 115.98 -29.3 L 115.98 -29.3 Q 116.04 -30.55 116.36 -31.6 Q 116.69 -32.65 117.19 -33.33 Q 117.69 -34 118.29 -34 L 118.29 -34 L 129.03 -34 Q 132.88 -34 135.06 -34.15 Q 137.24 -34.3 138.31 -34.43 Q 139.38 -34.55 139.94 -34.55 L 139.94 -34.55 Q 140.44 -34.55 140.63 -34.35 Q 140.84 -34.15 140.88 -33.55 L 140.88 -33.55 Q 140.94 -32.55 140.61 -31.45 Q 140.28 -30.35 139.76 -29.58 Q 139.24 -28.8 138.69 -28.8 L 138.69 -28.8 Q 138.34 -28.8 137.63 -28.93 Q 136.94 -29.05 136.03 -29.15 L 136.03 -29.15 L 131.28 -29.8 L 127.99 0.4 Z M 144.03 -1.2 L 144.03 -1.2 L 142.83 -8.75 Q 144.68 -13.55 146.61 -17.07 Q 148.53 -20.6 150.53 -22.55 Q 152.53 -24.5 154.58 -24.5 L 154.58 -24.5 Q 155.73 -24.5 156.23 -23.78 Q 156.73 -23.05 156.73 -21.95 L 156.73 -21.95 Q 156.73 -20.95 156.51 -20.03 Q 156.28 -19.1 155.86 -18.5 Q 155.43 -17.9 154.83 -17.9 L 154.83 -17.9 Q 154.28 -17.9 153.61 -18.25 Q 152.93 -18.6 151.78 -18.6 L 151.78 -18.6 Q 151.03 -18.6 149.88 -17.05 Q 148.73 -15.5 147.51 -12.93 Q 146.28 -10.35 145.33 -7.28 Q 144.38 -4.2 144.03 -1.2 Z M 139.83 0.7 L 139.83 0.7 Q 139.18 0.7 138.86 0.48 Q 138.53 0.25 138.51 -0.7 Q 138.48 -1.65 138.73 -3.75 L 138.73 -3.75 L 141.08 -24.55 L 144.58 -24.55 Q 145.33 -24.55 145.93 -23.45 Q 146.53 -22.35 146.53 -20.95 L 146.53 -20.95 Q 146.53 -20.3 146.16 -18.93 Q 145.78 -17.55 145.28 -16.03 Q 144.78 -14.5 144.38 -13.35 L 144.38 -13.35 L 143.08 -9.25 L 144.93 -9.55 L 144.03 -1.2 Q 143.98 -0.7 143.43 -0.33 Q 142.88 0.05 142.16 0.28 Q 141.43 0.5 140.78 0.6 Q 140.13 0.7 139.83 0.7 Z M 161.13 0.8 L 161.13 0.8 Q 158.33 0.8 157.13 -1.48 Q 155.93 -3.75 155.93 -7.85 L 155.93 -7.85 Q 155.93 -11.5 157.01 -14.55 Q 158.08 -17.6 159.93 -19.83 Q 161.78 -22.05 164.23 -23.28 Q 166.68 -24.5 169.43 -24.5 L 169.43 -24.5 Q 171.58 -24.5 173.36 -23.93 Q 175.13 -23.35 176.38 -22.75 L 176.38 -22.75 L 174.93 -17.5 Q 173.58 -18.4 171.91 -19.15 Q 170.23 -19.9 168.81 -20.33 Q 167.38 -20.75 166.68 -20.75 L 166.68 -20.75 Q 165.28 -20.75 164.11 -19.38 Q 162.93 -18 162.26 -15.58 Q 161.58 -13.15 161.58 -10 L 161.58 -10 Q 161.58 -7.1 162.01 -5.6 Q 162.43 -4.1 163.38 -4.1 L 163.38 -4.1 Q 164.03 -4.1 165.58 -5.58 Q 167.13 -7.05 169.33 -10.5 Q 171.53 -13.95 173.98 -19.85 L 173.98 -19.85 L 175.38 -15.4 Q 172.68 -9.4 170.23 -5.85 Q 167.78 -2.3 165.53 -0.75 Q 163.28 0.8 161.13 0.8 Z M 176.58 0.5 L 173.08 0.5 Q 172.08 0.5 171.88 -0.48 Q 171.68 -1.45 171.68 -2.55 L 171.68 -2.55 Q 171.68 -3.4 171.91 -4.65 Q 172.13 -5.9 172.48 -7.35 Q 172.83 -8.8 173.23 -10.2 L 173.23 -10.2 L 174.33 -13.95 L 172.88 -15.25 L 174.08 -22.8 Q 175.68 -23.05 176.91 -23.45 Q 178.13 -23.85 178.96 -24.15 Q 179.78 -24.45 180.13 -24.45 L 180.13 -24.45 Q 180.68 -24.45 180.68 -23.85 L 180.68 -23.85 Q 180.68 -23.6 180.06 -21.73 Q 179.43 -19.85 178.71 -16.95 Q 177.98 -14.05 177.63 -10.65 L 177.63 -10.65 L 176.58 0.5 Z M 187.68 0.8 L 187.68 0.8 Q 184.98 0.8 183.8 -1.4 Q 182.63 -3.6 182.63 -7.85 L 182.63 -7.85 Q 182.63 -11.5 183.65 -14.55 Q 184.68 -17.6 186.53 -19.83 Q 188.38 -22.05 190.83 -23.28 Q 193.28 -24.5 196.13 -24.5 L 196.13 -24.5 Q 197.88 -24.5 199.6 -23.93 Q 201.33 -23.35 202.58 -22.75 L 202.58 -22.75 L 200.98 -17.85 Q 199.63 -18.75 198.15 -19.4 Q 196.68 -20.05 195.45 -20.4 Q 194.23 -20.75 193.58 -20.75 L 193.58 -20.75 Q 192.13 -20.75 190.93 -19.38 Q 189.73 -18 189 -15.58 Q 188.28 -13.15 188.28 -10 L 188.28 -10 Q 188.28 -7.1 188.7 -5.6 Q 189.13 -4.1 190.08 -4.1 L 190.08 -4.1 Q 190.88 -4.1 192.55 -5.58 Q 194.23 -7.05 196.45 -10.5 Q 198.68 -13.95 201.13 -19.85 L 201.13 -19.85 L 202.58 -15.4 Q 199.93 -9.4 197.33 -5.85 Q 194.73 -2.3 192.3 -0.75 Q 189.88 0.8 187.68 0.8 Z M 204.38 0.5 L 200.88 0.5 Q 200.33 0.5 199.93 -0.13 Q 199.53 -0.75 199.33 -1.65 Q 199.13 -2.55 199.13 -3.3 L 199.13 -3.3 Q 199.13 -4.55 199.55 -6.15 Q 199.98 -7.75 200.63 -10.2 L 200.63 -10.2 L 201.63 -13.95 L 200.18 -15.55 L 200.73 -20.8 L 201.43 -21.65 L 201.83 -34.8 L 205.73 -34.8 Q 206.48 -34.8 206.95 -34.15 Q 207.43 -33.5 207.65 -32.63 Q 207.88 -31.75 207.88 -30.95 L 207.88 -30.95 Q 207.88 -30.45 207.83 -29.83 Q 207.78 -29.2 207.63 -28.13 Q 207.48 -27.05 207.18 -25.15 L 207.18 -25.15 L 205.53 -13.65 Q 205.18 -11.25 204.93 -8.75 Q 204.68 -6.25 204.55 -3.9 Q 204.43 -1.55 204.38 0.5 L 204.38 0.5 Z M 218.03 0.8 L 218.03 0.8 Q 214.18 0.8 212.08 -1.63 Q 209.98 -4.05 209.98 -8.3 L 209.98 -8.3 Q 209.98 -11.85 210.98 -14.8 Q 211.98 -17.75 213.78 -19.95 Q 215.58 -22.15 218 -23.35 Q 220.43 -24.55 223.28 -24.55 L 223.28 -24.55 Q 226.68 -24.55 228.48 -23.1 Q 230.28 -21.65 230.28 -18.95 L 230.28 -18.95 Q 230.28 -16.2 228.45 -14.15 Q 226.63 -12.1 223.2 -10.65 Q 219.78 -9.2 215.03 -8.2 L 215.03 -8.2 L 214.38 -11.2 Q 217.13 -11.55 219.43 -12.4 Q 221.73 -13.25 223.13 -14.68 Q 224.53 -16.1 224.53 -18.05 L 224.53 -18.05 Q 224.53 -19.4 224 -20.1 Q 223.48 -20.8 222.13 -20.8 L 222.13 -20.8 Q 220.08 -20.8 218.65 -19.3 Q 217.23 -17.8 216.5 -15.4 Q 215.78 -13 215.78 -10.3 L 215.78 -10.3 Q 215.78 -6.65 216.9 -5.43 Q 218.03 -4.2 220.23 -4.2 L 220.23 -4.2 Q 222.53 -4.2 224.25 -4.93 Q 225.98 -5.65 227.23 -6.45 L 227.23 -6.45 Q 227.63 -6.7 227.93 -6.85 Q 228.23 -7 228.43 -7 L 228.43 -7 Q 228.68 -7 228.83 -6.8 Q 228.98 -6.6 228.98 -6.35 L 228.98 -6.35 Q 228.98 -5.45 228.18 -4.25 Q 227.38 -3.05 225.9 -1.9 Q 224.43 -0.75 222.43 0.03 Q 220.43 0.8 218.03 0.8 Z" stroke-linecap="round" />
</g>
		<g transform="matrix(1.59 0 0 1.59 307.69 -47.03)"  >
<path style="stroke: none; stroke-width: 1; stroke-dasharray: none; stroke-linecap: butt; stroke-dashoffset: 0; stroke-linejoin: miter; stroke-miterlimit: 4; fill: rgb(147,51,234); fill-rule: nonzero; opacity: 1;" vector-effect="non-scaling-stroke"  transform=" translate(-8, -34)" d="M 5.928 39.472 C 7.639089291206077 40.49167017666051 9.598246204375632 41.019694452445876 11.589999999999996 40.998 C 12.598141592435399 41.007013548818286 13.602884546203748 40.87986495942276 14.577000000000004 40.62 C 15.510588141814686 40.33841214996027 16.105014963681114 39.4245918118671 15.984 38.457 C 15.441 34.11 13.751 30.923 10.96 28.982 C 8.162044301140956 27.208249225191842 4.783561889941788 26.593164582388596 1.5399999999999903 27.267000000000003 C 0.5007297558863533 27.51257586229324 -0.16227907763192562 28.531302582586264 0.03399999999999981 29.581 C 0.917 34.3 2.9 37.628 5.928 39.47 M 8.703 32.285 C 10.222193652637339 33.44948246035706 11.268916743607717 35.12416836939178 11.649999999999999 37 C 10.354636619948195 37.048003123573054 9.07408709409643 36.7111629222077 7.969999999999999 36.032 C 6.2443600346865615 34.83154567172371 5.011723957209105 33.04688755839612 4.500000000000001 31.008 C 5.995274206281617 31.016537112535037 7.455712323949436 31.460262897988713 8.702999999999992 32.28499999999999" stroke-linecap="round" />
</g>
		<g transform="matrix(1.59 0 0 1.59 309.28 -23.19)"  >
<path style="stroke: none; stroke-width: 1; stroke-dasharray: none; stroke-linecap: butt; stroke-dashoffset: 0; stroke-linejoin: miter; stroke-miterlimit: 4; fill: rgb(147,51,234); fill-rule: nonzero; opacity: 1;" vector-effect="non-scaling-stroke"  transform=" translate(-9, -49)" d="M 11.96 43.984 C 9.162313841512743 42.210509983882126 5.784242948875354 41.59543496733333 2.5409999999999986 42.269 C 1.5013251532209573 42.514131416581904 0.8377880489482801 43.53299330064758 1.0340000000000003 44.583 C 1.917 49.302 3.9 52.629 6.928 54.473 C 8.638987542878423 55.49302028442844 10.598151080217086 56.021392365233126 12.589999999999998 56 C 13.598141592435399 56.00901354881829 14.602884546203748 55.881864959422764 15.577000000000004 55.622 C 16.510588141814686 55.34041214996027 17.105014963681118 54.426591811867105 16.984 53.459 C 16.441 49.112 14.751 45.925 11.96 43.984 M 8.971 51.034 C 7.2449848664581324 49.833719103031704 6.011978453540788 48.049039120750884 5.499999999999999 46.01 C 6.995274206281618 46.018537112535036 8.455712323949445 46.46226289798872 9.703 47.287 C 11.221787997291186 48.45098700185837 12.26846915664918 50.124895486437346 12.649999999999999 52 C 11.355758936129423 52.04037145893067 10.077547785060329 51.70484103177503 8.969999999999999 51.034" stroke-linecap="round" />
</g>
		<g transform="matrix(1.59 0 0 1.59 345.83 -47.03)"  >
<path style="stroke: none; stroke-width: 1; stroke-dasharray: none; stroke-linecap: butt; stroke-dashoffset: 0; stroke-linejoin: miter; stroke-miterlimit: 4; fill: rgb(147,51,234); fill-rule: nonzero; opacity: 1;" vector-effect="non-scaling-stroke"  transform=" translate(-32, -34)" d="M 25.423 40.62 C 26.39743859090279 40.879954305194765 27.402523955847162 41.00710365859134 28.411000000000005 40.998 C 30.401737642260585 41.01914161651668 32.35978285163665 40.49113720062908 34.07 39.472 C 37.102 37.628 39.084 34.3 39.967 29.58 C 40.16255125258339 28.530028792201065 39.49862097500792 27.511679500402614 38.459 27.267 C 35.21577037115597 26.592361902225456 31.83729546773184 27.20751048056417 29.04 28.982 C 26.25 30.922 24.56 34.111 24.016 38.457 C 23.894985036318882 39.424591811867096 24.489411858185314 40.33841214996026 25.423 40.62 M 31.297 32.285 C 32.54428767605056 31.46026289798872 34.00472579371838 31.01653711253504 35.49999999999999 31.008 C 34.98802154645921 33.04703912075088 33.75501513354187 34.8317191030317 32.029 36.032 C 30.91050729323869 36.67593969436398 29.640574561447114 37.01007801574867 28.35 37 C 28.73108325639228 35.12416836939179 29.77780634736266 33.44948246035706 31.296999999999997 32.285" stroke-linecap="round" />
</g>
		<g transform="matrix(1.59 0 0 1.59 344.24 -23.19)"  >
<path style="stroke: none; stroke-width: 1; stroke-dasharray: none; stroke-linecap: butt; stroke-dashoffset: 0; stroke-linejoin: miter; stroke-miterlimit: 4; fill: rgb(147,51,234); fill-rule: nonzero; opacity: 1;" vector-effect="non-scaling-stroke"  transform=" translate(-31, -49)" d="M 28.04 43.984 C 25.249 45.924 23.559 49.112 23.016 53.459 C 22.894985036318882 54.4265918118671 23.489411858185314 55.340412149960265 24.423 55.622 C 25.39743859090279 55.88195430519477 26.402523955847162 56.00910365859134 27.411000000000005 56 C 29.401832724067404 56.020839520467305 31.359884553590533 55.49248731271296 33.07 54.473 C 36.102 52.63 38.084 49.302 38.967 44.583 C 39.16314504848762 43.532683860757245 38.4990794689854 42.51368667841764 37.459 42.269 C 34.21575705112465 41.59543496733333 30.83768615848725 42.210509983882126 28.039999999999996 43.984 M 31.029 51.034 C 29.91453314060856 51.68746967895143 28.641738927771307 52.021668974847266 27.35 52 C 27.731530843350818 50.124895486437346 28.778212002708813 48.45098700185837 30.297 47.287 C 31.544287676050555 46.46226289798872 33.00472579371838 46.01853711253504 34.49999999999999 46.01 C 33.98802154645921 48.049039120750884 32.75501513354187 49.833719103031704 31.029 51.034" stroke-linecap="round" />
</g>
		<g transform="matrix(1.59 0 0 1.59 447.52 -47.03)"  >
<path style="stroke: none; stroke-width: 1; stroke-dasharray: none; stroke-linecap: butt; stroke-dashoffset: 0; stroke-linejoin: miter; stroke-miterlimit: 4; fill: rgb(147,51,234); fill-rule: nonzero; opacity: 1;" vector-effect="non-scaling-stroke"  transform=" translate(-96, -34)" d="M 93.928 39.472 C 95.63908929120608 40.49167017666051 97.59824620437564 41.019694452445876 99.59 40.998 C 100.5981415924354 41.007013548818286 101.60288454620374 40.87986495942276 102.577 40.62 C 103.51058814181468 40.33841214996026 104.10501496368111 39.4245918118671 103.984 38.457 C 103.441 34.11 101.751 30.923 98.96 28.982 C 96.16204430114095 27.208249225191846 92.7835618899418 26.593164582388603 89.53999999999999 27.267000000000003 C 88.50072975588635 27.51257586229324 87.83772092236808 28.531302582586264 88.034 29.581 C 88.916 34.3 90.9 37.628 93.928 39.47 M 96.703 32.285 C 98.22219365263734 33.44948246035706 99.26891674360772 35.12416836939179 99.65 37 C 98.3546366199482 37.048003123573054 97.07408709409643 36.7111629222077 95.97 36.032 C 94.24436003468657 34.83154567172371 93.0117239572091 33.04688755839612 92.5 31.008000000000003 C 93.99527420628162 31.01653711253504 95.45571232394944 31.460262897988716 96.703 32.285" stroke-linecap="round" />
</g>
		<g transform="matrix(1.59 0 0 1.59 449.11 -23.19)"  >
<path style="stroke: none; stroke-width: 1; stroke-dasharray: none; stroke-linecap: butt; stroke-dashoffset: 0; stroke-linejoin: miter; stroke-miterlimit: 4; fill: rgb(147,51,234); fill-rule: nonzero; opacity: 1;" vector-effect="non-scaling-stroke"  transform=" translate(-97, -49)" d="M 99.96 43.984 C 97.16231384151274 42.210509983882126 93.78424294887535 41.59543496733333 90.541 42.269 C 89.50132515322096 42.51413141658191 88.83778804894828 43.53299330064758 89.034 44.583 C 89.917 49.302 91.9 52.629 94.928 54.473 C 96.63898754287843 55.49302028442844 98.59815108021708 56.02139236523313 100.59 56 C 101.5981415924354 56.00901354881829 102.60288454620374 55.881864959422764 103.577 55.622 C 104.51058814181468 55.340412149960265 105.10501496368111 54.4265918118671 104.984 53.459 C 104.441 49.112 102.751 45.925 99.96 43.984 M 96.971 51.034 C 95.24498486645814 49.833719103031704 94.01197845354079 48.049039120750884 93.5 46.01 C 94.99527420628162 46.018537112535036 96.45571232394944 46.46226289798872 97.703 47.287 C 99.22178799729119 48.45098700185837 100.26846915664919 50.124895486437346 100.65 52 C 99.35575893612942 52.04037145893067 98.07754778506033 51.70484103177503 96.97 51.034" stroke-linecap="round" />
</g>
		<g transform="matrix(1.59 0 0 1.59 485.65 -47.03)"  >
<path style="stroke: none; stroke-width: 1; stroke-dasharray: none; stroke-linecap: butt; stroke-dashoffset: 0; stroke-linejoin: miter; stroke-miterlimit: 4; fill: rgb(147,51,234); fill-rule: nonzero; opacity: 1;" vector-effect="non-scaling-stroke"  transform=" translate(-120, -34)" d="M 113.423 40.62 C 114.3974385909028 40.879954305194765 115.40252395584716 41.00710365859134 116.411 40.998 C 118.40173764226058 41.01914161651667 120.35978285163664 40.49113720062908 122.07 39.472 C 125.102 37.628 127.084 34.3 127.967 29.58 C 128.1625512525834 28.530028792201065 127.49862097500792 27.511679500402614 126.459 27.267 C 123.21577037115597 26.592361902225456 119.83729546773185 27.20751048056417 117.04 28.982 C 114.25 30.922 112.56 34.111 112.016 38.457 C 111.89498503631889 39.424591811867096 112.48941185818532 40.33841214996026 113.423 40.62 M 119.297 32.285 C 120.54428767605056 31.460262897988716 122.00472579371838 31.016537112535037 123.5 31.008 C 122.98802154645921 33.04703912075088 121.75501513354186 34.8317191030317 120.029 36.032 C 118.91162887453508 36.67866517168221 117.64093958412225 37.013002554971045 116.35 37 C 116.73108325639228 35.12416836939178 117.77780634736266 33.44948246035706 119.297 32.285" stroke-linecap="round" />
</g>
		<g transform="matrix(1.59 0 0 1.59 484.06 -23.19)"  >
<path style="stroke: none; stroke-width: 1; stroke-dasharray: none; stroke-linecap: butt; stroke-dashoffset: 0; stroke-linejoin: miter; stroke-miterlimit: 4; fill: rgb(147,51,234); fill-rule: nonzero; opacity: 1;" vector-effect="non-scaling-stroke"  transform=" translate(-119, -49)" d="M 116.04 43.984 C 113.249 45.924 111.559 49.112 111.016 53.459 C 110.89498503631889 54.4265918118671 111.48941185818532 55.340412149960265 112.423 55.622 C 113.3974385909028 55.88195430519477 114.40252395584716 56.00910365859134 115.411 56 C 117.4018327240674 56.020839520467305 119.35988455359053 55.49248731271296 121.07 54.473 C 124.102 52.63 126.084 49.302 126.967 44.583 C 127.16314504848762 43.532683860757245 126.4990794689854 42.51368667841764 125.459 42.269 C 122.21575705112464 41.59543496733333 118.83768615848726 42.210509983882126 116.04 43.984 M 119.029 51.034 C 117.91533602331135 51.689401170206864 116.64198850082715 52.02374574936417 115.35 52 C 115.73153084335081 50.124895486437346 116.77821200270881 48.45098700185837 118.297 47.287 C 119.54417790167345 46.46190969516499 121.00462423080349 46.01783393769932 122.5 46.009 C 121.98824066999046 48.04840601621061 120.75521238210395 49.83347289798236 119.029 51.034" stroke-linecap="round" />
</g>
		<g transform="matrix(1.59 0 0 1.59 377.6 -47.03)"  >
<path style="stroke: none; stroke-width: 1; stroke-dasharray: none; stroke-linecap: butt; stroke-dashoffset: 0; stroke-linejoin: miter; stroke-miterlimit: 4; fill: rgb(147,51,234); fill-rule: nonzero; opacity: 1;" vector-effect="non-scaling-stroke"  transform=" translate(-52, -34)" d="M 49.928 39.472 C 51.639089291206076 40.49167017666051 53.598246204375634 41.019694452445876 55.59 40.998 C 56.5981415924354 41.007013548818286 57.60288454620375 40.87986495942276 58.577 40.62 C 59.51058814181469 40.33841214996027 60.105014963681114 39.4245918118671 59.984 38.457 C 59.441 34.11 57.751 30.923 54.96 28.982 C 52.16231384151274 27.208509983882127 48.784242948875345 26.593434967333327 45.54099999999999 27.267 C 44.501325153220954 27.51213141658191 43.837788048948276 28.530993300647584 44.034 29.581 C 44.917 34.3 46.9 37.628 49.928 39.47 M 52.703 32.285 C 54.222193652637344 33.44948246035706 55.26891674360772 35.12416836939178 55.65 36.99999999999999 C 54.354636619948195 37.048003123573054 53.07408709409643 36.71116292220769 51.97 36.032 C 50.24436003468656 34.83154567172371 49.01172395720911 33.04688755839612 48.5 31.008000000000003 C 49.99527420628162 31.01653711253504 51.45571232394945 31.460262897988716 52.703 32.285" stroke-linecap="round" />
</g>
		<g transform="matrix(1.59 0 0 1.59 379.19 -23.19)"  >
<path style="stroke: none; stroke-width: 1; stroke-dasharray: none; stroke-linecap: butt; stroke-dashoffset: 0; stroke-linejoin: miter; stroke-miterlimit: 4; fill: rgb(147,51,234); fill-rule: nonzero; opacity: 1;" vector-effect="non-scaling-stroke"  transform=" translate(-53, -49)" d="M 55.96 43.984 C 53.16231384151274 42.210509983882126 49.78424294887535 41.59543496733333 46.541 42.269 C 45.501325153220954 42.514131416581904 44.837788048948276 43.53299330064758 45.034 44.583 C 45.917 49.302 47.9 52.629 50.928 54.473 C 52.638987542878425 55.49302028442844 54.598151080217086 56.02139236523313 56.59 56 C 57.5981415924354 56.00901354881829 58.60288454620375 55.881864959422764 59.577 55.622 C 60.51058814181469 55.34041214996027 61.105014963681114 54.426591811867105 60.984 53.459 C 60.441 49.112 58.751 45.925 55.96 43.984 M 52.971 51.034 C 51.24498486645813 49.833719103031704 50.01197845354079 48.049039120750884 49.5 46.01 C 50.99527420628162 46.018537112535036 52.45571232394945 46.46226289798872 53.703 47.287 C 55.22178799729119 48.45098700185837 56.26846915664918 50.124895486437346 56.65 52 C 55.35575893612942 52.04037145893067 54.077547785060325 51.70484103177503 52.97 51.034" stroke-linecap="round" />
</g>
		<g transform="matrix(1.59 0 0 1.59 415.74 -47.03)"  >
<path style="stroke: none; stroke-width: 1; stroke-dasharray: none; stroke-linecap: butt; stroke-dashoffset: 0; stroke-linejoin: miter; stroke-miterlimit: 4; fill: rgb(147,51,234); fill-rule: nonzero; opacity: 1;" vector-effect="non-scaling-stroke"  transform=" translate(-76, -34)" d="M 69.423 40.62 C 70.3974385909028 40.879954305194765 71.40252395584716 41.00710365859134 72.411 40.998 C 74.40173764226058 41.01914161651667 76.35978285163664 40.49113720062908 78.07 39.472 C 81.102 37.628 83.084 34.3 83.967 29.58 C 84.16255125258338 28.530028792201065 83.49862097500792 27.511679500402614 82.459 27.267 C 79.21577037115597 26.592361902225456 75.83729546773185 27.20751048056417 73.04 28.982 C 70.25 30.922 68.56 34.111 68.016 38.457 C 67.89498503631889 39.424591811867096 68.48941185818532 40.33841214996026 69.423 40.62 M 75.297 32.285 C 76.54428767605056 31.460262897988716 78.00472579371838 31.016537112535037 79.5 31.008 C 78.98802154645921 33.04703912075088 77.75501513354186 34.8317191030317 76.029 36.032 C 74.91087861337705 36.6768429846403 73.640695886726 37.01104708341666 72.35 37 C 72.73108325639228 35.12416836939178 73.77780634736266 33.44948246035706 75.297 32.285" stroke-linecap="round" />
</g>
		<g transform="matrix(1.59 0 0 1.59 414.15 -23.19)"  >
<path style="stroke: none; stroke-width: 1; stroke-dasharray: none; stroke-linecap: butt; stroke-dashoffset: 0; stroke-linejoin: miter; stroke-miterlimit: 4; fill: rgb(147,51,234); fill-rule: nonzero; opacity: 1;" vector-effect="non-scaling-stroke"  transform=" translate(-75, -49)" d="M 72.04 43.984 C 69.249 45.924 67.559 49.112 67.016 53.459 C 66.89498503631889 54.4265918118671 67.48941185818532 55.340412149960265 68.423 55.622 C 69.3974385909028 55.88195430519477 70.40252395584716 56.00910365859134 71.411 56 C 73.4018327240674 56.020839520467305 75.35988455359053 55.49248731271296 77.07 54.473 C 80.102 52.63 82.084 49.302 82.967 44.583 C 83.16314504848762 43.532683860757245 82.4990794689854 42.51368667841764 81.459 42.269 C 78.21575705112464 41.59543496733333 74.83768615848726 42.210509983882126 72.04 43.984 M 75.029 51.034 C 73.91533602331135 51.689401170206864 72.64198850082715 52.02374574936417 71.35 52 C 71.73153084335081 50.124895486437346 72.77821200270881 48.45098700185837 74.297 47.287 C 75.54428767605056 46.462262897988715 77.00472579371838 46.018537112535036 78.5 46.01 C 77.98802154645921 48.049039120750884 76.75501513354186 49.833719103031704 75.029 51.034" stroke-linecap="round" />
</g>
		<g transform="matrix(1.59 0 0 1.59 336.21 -15.2)"  >
<path style="stroke: none; stroke-width: 1; stroke-dasharray: none; stroke-linecap: butt; stroke-dashoffset: 0; stroke-linejoin: miter; stroke-miterlimit: 4; fill: rgb(147,51,234); fill-rule: nonzero; opacity: 1;" vector-effect="non-scaling-stroke"  transform=" translate(-25.94, -54)" d="M 42.82 88.009 C 43.48178634660113 86.63450065723022 44.221661707759935 85.29898556488581 45.035999999999994 84.00900000000001 L 34.264 84.009 L 36.639 80.007 L 47.779 80.007 L 47.9 79.844 C 48.86 78.55 49.896 77.306 50.896 76.103 L 50.973 76.007 L 39.013 76.007 L 41.39 72.007 L 51.876 72.007 C 51.72815278619287 71.56357596218092 51.55452358954836 71.12916906826841 51.356 70.706 L 51.211 70.52 L 51.296 70.593 L 51.168 70.393 C 50.66338893412876 69.64673765625544 50.244415983016644 68.84602633975855 49.919 68.006 L 43.764 68.006 L 46.139 64.006 L 49.462 64.006 C 49.688033470534485 62.486442561033655 50.40355483071051 61.082082678450675 51.5 60.006 L 22 60.006 L 22 32.86 C 25.453 28.768 29.273 19.924 21.302 12.533 C 20.559381166353027 11.844120454370163 19.418993955034956 11.819208040714251 18.647 12.475 C 16.019984520608485 14.878443631311212 14.376555288452169 18.169933480843447 14.033999999999999 21.714000000000006 C 13.764 25.396 15.112 29.053 18 32.598 L 18 60.005 L 2 60.005 C 0.8954305468925388 60.00500006583747 1.1920928955078125e-7 60.90043054689254 1.1920928955078125e-7 62.004999999999995 C 1.1920928955078125e-7 63.10956945310746 0.8954305468925385 64.00499993416253 1.9999999999999998 64.005 L 24.198 64.005 L 21.448 68.007 L 2 68.007 C 0.913127260332993 68.03130777123243 0.04471856437778099 68.91935547420154 0.04471856437778099 70.0065 C 0.04471856437778099 71.09364452579847 0.9131272603329925 71.98169222876757 1.9999999999999996 72.006 L 18.698 72.006 L 15.948 76.008 L 2 76.008 C 0.9131272603328655 76.03230777123225 0.044718564377463244 76.92035547420141 0.044718564377463244 78.0075 C 0.044718564377463244 79.09464452579859 0.9131272603328653 79.98269222876775 1.9999999999999998 80.007 L 13.198 80.007 L 10.448 84.009 L 2 84.009 C 0.913127260332993 84.03330777123243 0.04471856437778099 84.92135547420153 0.04471856437778099 86.0085 C 0.04471856437778099 87.09564452579846 0.9131272603329925 87.98369222876757 1.9999999999999996 88.008 L 7.698 88.008 L 4.948 92.01 L 2 92.01 C 0.8954305003384131 92.01 0 92.90543050033841 0 94.01 C 0 95.1145694996616 0.8954305003384131 96.01 2 96.01 L 40.306 96.01 C 40.514003688651066 94.65499049247939 40.824902744288394 93.31779025317906 41.23599999999999 92.01 L 29.514 92.01 L 31.889 88.01 Z M 18.02 22.049 C 18.18024716053715 20.204462767413254 18.857123417316142 18.442435686274294 19.973 16.965000000000003 C 23.552 21.51 21.685 26.154 20.072 28.714 C 18.65818835155593 26.786566288183348 17.935277386584218 24.43886713098478 18.02 22.049999999999997 M 29.052 64.007 L 41.486 64.007 L 39.111 68.006 L 26.301 68.006 Z M 23.552 72.006 L 36.736 72.006 L 34.361 76.008 L 20.801 76.008 Z M 18.052 80.009 L 31.986 80.009 L 29.611 84.008 L 15.301 84.008 Z M 24.862 92.009 L 9.801 92.009 L 12.552 88.01 L 27.236 88.01 Z" stroke-linecap="round" />
</g>
		<g transform="matrix(1.59 0 0 1.59 396.68 38.78)"  >
<path style="stroke: none; stroke-width: 1; stroke-dasharray: none; stroke-linecap: butt; stroke-dashoffset: 0; stroke-linejoin: miter; stroke-miterlimit: 4; fill: rgb(147,51,234); fill-rule: nonzero; opacity: 1;" vector-effect="non-scaling-stroke"  transform=" translate(-64, -87.99)" d="M 74.03 78.66 C 73.047 77.482 72.04 76.269 71.148 75.06 C 71.53890773958287 72.82101721855967 72.19624418450306 70.63683391383509 73.106 68.554 C 73.201 68.343 73.4 68.01 73.608 67.655 C 74.452 66.229 75.608 64.276 75.016 62.294 C 74.43584415665963 60.6452502831931 72.71716120432637 59.68809060604495 71.01 60.063 C 69.65001518672295 60.430567892008476 68.44626113953873 61.230029034715656 67.58 62.341 C 67.26698039010148 62.68657480011776 66.93230527225512 63.01189771906223 66.578 63.315 L 66.492 63.178 C 66.14440478956281 62.53171501018037 65.6472334114222 61.97796895797549 65.042 61.563 C 63.47 60.596 61.913 61.13 60.413 63.148 C 60.301 63.298 60.198 63.445 60.097 63.556 C 60.04455332204891 63.61353741649507 59.988791759589404 63.66796337266812 59.93 63.719 C 59.720964206283085 63.58287652822364 59.518409558985816 63.437050530087056 59.323 63.282 C 58.73060617221667 62.7842720477157 58.057611232419134 62.39129711301986 57.33299999999999 62.12 C 56.44208198598462 61.8330895083301 55.46830505546951 61.97843486863866 54.7 62.513 C 53.892406693151194 63.08402455606558 53.40340281931312 64.0041532412844 53.382 64.993 C 53.41061766459931 66.1601224624511 53.80987980856935 67.28786290419104 54.522 68.213 L 54.736 68.55 C 54.75 68.57 55.906 70.445 56.796 75.131 C 55.92 76.314 54.933 77.503 53.972 78.66 C 53.005 79.822 52.006 81.023 51.11 82.23 C 47.333 87.31 43.54 93.552 44.045 101.315 C 44.656 110.73 53.386 115.487 61.31 115.926 C 63.12633179971284 116.02588630139184 64.94681669630933 116.02455090077082 66.76300000000003 115.922 C 74.615 115.487 83.343 110.732 83.953 101.315 C 84.459 93.549 80.667 87.309 76.89 82.23 C 75.994 81.024 74.995 79.823 74.03 78.66 M 63.036 66.269 C 63.17211843110706 66.11771471888457 63.30157474301079 65.96056543304267 63.424 65.798 C 63.8561267458157 66.47695206470765 64.51081893102602 66.98458596209535 65.276 67.234 C 67.724 67.973 69.364 66.272 70.454 65.124 C 70.344 65.315 70.243 65.487 70.166 65.617 C 69.90776615901476 66.03561448499772 69.67177224855561 66.46754676241517 69.459 66.91100000000002 C 68.73652171652745 68.55582461090589 68.16029596113552 70.26107806588685 67.737 72.00700000000002 L 60.203 72.007 C 59.842022424503114 70.4834785172507 59.345718125349755 68.99523494453662 58.72 67.56 C 60.287204866578065 68.09790678197332 62.02296724842735 67.57842450322667 63.037 66.268 M 79.962 101.055 C 79.507 108.078 72.894 111.575 66.541 111.927 C 64.84796165854277 112.02068346496783 63.151038341457216 112.02068346496783 61.45799999999999 111.927 C 55.106 111.576 48.493 108.078 48.038 101.055 C 47.618 94.602 50.809 89.341 54.32 84.617 C 55.15 83.497 56.072 82.39 57.047 81.217 C 58.239 79.782 59.473 78.297 60.55 76.765 L 61.026 76.09 L 61.012 76.007 C 61.012 76.007 66.935 76.007 66.932 76.03 L 67.395 76.694 C 68.488 78.254 69.742 79.762 70.954 81.219 C 71.928 82.39 72.849 83.499 73.68 84.617 C 77.19 89.34 80.381 94.599 79.962 101.055" stroke-linecap="round" />
</g>
		<g transform="matrix(1.59 0 0 1.59 457.1 -15.2)"  >
<path style="stroke: none; stroke-width: 1; stroke-dasharray: none; stroke-linecap: butt; stroke-dashoffset: 0; stroke-linejoin: miter; stroke-miterlimit: 4; fill: rgb(147,51,234); fill-rule: nonzero; opacity: 1;" vector-effect="non-scaling-stroke"  transform=" translate(-102.02, -54)" d="M 126 64.006 C 127.1045694996616 64.006 128 63.11056949966159 128 62.006 C 128 60.901430500338414 127.1045694996616 60.006 126 60.006 L 110 60.006 L 110 32.86 C 113.453 28.768 117.273 19.924 109.302 12.533 C 108.55938116635303 11.844120454370163 107.41899395503496 11.819208040714251 106.647 12.475 C 104.01998452060849 14.878443631311212 102.37655528845218 18.16993348084345 102.034 21.714000000000013 C 101.764 25.396 103.112 29.053 106 32.598 L 106 60.005 L 78.389 60.005 C 78.57512543416183 60.370808666793245 78.728717188172 60.75227838263551 78.848 61.145 C 79.1233570045206 62.07138267942742 79.22639642219539 63.04042772920439 79.152 64.004 L 81.862 64.004 L 84.235 68.007 L 77.982 68.007 C 77.69308729038356 68.58042694936199 77.3821900716969 69.14251044022791 77.05 69.692 C 76.93 69.898 76.812 70.086 76.726 70.255 C 76.47166669898215 70.82800405066261 76.24441578086959 71.41264958448524 76.045 72.007 L 86.61 72.007 L 88.986 76.007 L 77.026 76.007 L 77.105 76.103 C 78.105 77.306 79.139 78.549 80.101 79.843 L 80.22 80.008 L 91.361 80.008 L 93.736 84.008 L 82.966 84.008 C 83.77965623974966 85.29803312563355 84.5188633308541 86.63354729203724 85.18 88.00799999999998 L 96.11 88.008 L 98.486 92.01 L 86.764 92.01 C 87.1750972557116 93.31779025317906 87.48599631134893 94.65499049247939 87.694 96.01 L 126 96.01 C 127.1045694996616 96.01 128 95.1145694996616 128 94.01 C 128 92.90543050033841 127.1045694996616 92.01 126 92.01 L 123.052 92.01 L 120.302 88.01 L 126 88.01 C 127.10484564203651 88.01 128.0005 87.11434564203651 128.0005 86.0095 C 128.0005 84.9046543579635 127.10484564203651 84.009 126 84.009 L 117.552 84.009 L 114.802 80.007 L 126 80.007 C 127.08687273966713 79.98269222876775 127.95528143562254 79.09464452579859 127.95528143562254 78.0075 C 127.95528143562254 76.92035547420141 127.08687273966713 76.03230777123225 126 76.008 L 112.052 76.008 L 109.302 72.006 L 126 72.006 C 127.086872739667 71.98169222876757 127.95528143562223 71.09364452579847 127.95528143562223 70.0065 C 127.95528143562223 68.91935547420154 127.086872739667 68.03130777123243 126 68.007 L 106.552 68.007 L 103.802 64.005 Z M 106.02 22.05 C 106.1798794457733 20.20476791623036 106.85677416714569 18.44199958397231 107.973 16.964000000000002 C 111.552 21.51 109.685 26.154 108.072 28.714 C 106.65818835155594 26.78656628818335 105.93527738658422 24.438867130984782 106.02 22.050000000000004 M 118.198 92.01 L 103.138 92.01 L 100.765 88.008 L 115.448 88.008 Z M 112.698 84.007 L 98.388 84.007 L 96.015 80.008 L 109.948 80.008 Z M 107.198 76.008 L 93.638 76.008 L 91.265 72.006 L 104.448 72.006 Z M 101.698 68.005 L 88.888 68.005 L 86.515 64.006 L 98.948 64.006 Z" stroke-linecap="round" />
</g>
		<g transform="matrix(1.59 0 0 1.59 396.68 -45.74)"  >
<path style="stroke: none; stroke-width: 1; stroke-dasharray: none; stroke-linecap: butt; stroke-dashoffset: 0; stroke-linejoin: miter; stroke-miterlimit: 4; fill: rgb(147,51,234); fill-rule: nonzero; opacity: 1;" vector-effect="non-scaling-stroke"  transform=" translate(-64.01, -34.8)" d="M 62 57.278 C 63.335366627436564 56.98050614733203 64.72941708735013 57.09272720935507 66 57.6 L 66 32.86 C 69.453 28.767 73.273 19.923 65.302 12.532 C 64.5591249907545 11.843412962743205 63.418743348274376 11.818930193017643 62.647 12.474999999999998 C 60.01998452060848 14.878443631311212 58.37655528845217 18.16993348084345 58.034 21.714000000000013 C 57.764 25.396 59.112 29.053 62 32.598 Z M 62.02 22.05 C 62.179879445773295 20.20476791623036 62.85677416714568 18.44199958397231 63.973 16.964 C 67.552 21.51 65.685 26.154 64.072 28.714 C 62.65818835155593 26.786566288183348 61.935277386584225 24.43886713098478 62.02 22.049999999999997" stroke-linecap="round" />
</g>
		<g transform="matrix(1.59 0 0 1.59 396.66 49.91)"  >
<path style="stroke: none; stroke-width: 1; stroke-dasharray: none; stroke-linecap: butt; stroke-dashoffset: 0; stroke-linejoin: miter; stroke-miterlimit: 4; fill: rgb(147,51,234); fill-rule: nonzero; opacity: 1;" vector-effect="non-scaling-stroke"  transform=" translate(-63.99, -95.01)" d="M 64.695 93.566 C 63.39 93.162 62.572 92.882 62.223 92.256 C 61.94372379234495 91.77615339109721 61.92789651036229 91.18715239731372 62.181 90.693 C 62.812209978409896 90.00593611560015 63.78216780652319 89.7429230823853 64.674 90.017 C 65.11228677542236 90.12933038468033 65.50882823050831 90.36579687409673 65.816 90.698 C 66.31384959953702 91.2106761215182 67.04739105525665 91.41880879413453 67.74030640017361 91.24399645443067 C 68.43322174509058 91.0691841147268 68.98024065479368 90.53798491565276 69.17530640017361 89.85049645443067 C 69.37037214555356 89.1630079932086 69.18384959953703 88.42367612151821 68.686 87.911 C 67.92768530141127 87.12647907900227 66.98138928777321 86.5488564122563 65.937 86.233 L 65.937 85.008 C 65.937 83.9034305003384 65.04156949966159 83.008 63.937 83.008 C 62.83243050033841 83.008 61.937 83.9034305003384 61.937 85.008 L 61.937 86.228 C 60.606273076191286 86.5883235538688 59.46601082105607 87.44844597755076 58.754 88.629 C 57.76112093816543 90.35316565485556 57.75199694798559 92.47335287289549 58.73 94.206 C 59.874 96.26 61.89 96.885 63.511 97.388 C 65.223 97.918 65.752 98.177 65.956 98.868 C 66.06893081901113 99.45451959751492 65.74417369818109 100.03739536503066 65.186 100.25 C 64.01524285729688 100.70409489971803 62.6852226058395 100.34434528555593 61.903 99.362 C 61.1982846592159 98.51120534288566 59.93729465711433 98.3927846592159 59.086499999999994 99.0975 C 58.23570534288566 99.8022153407841 58.11728465921591 101.06320534288567 58.822 101.914 C 59.64461946826526 102.90246779515961 60.72227664064114 103.64672910291087 61.938 104.066 L 61.938 105.011 C 61.93827614237492 106.11556949966159 62.83393050033841 107.01077614237491 63.9385 107.0105 C 65.04306949966158 107.01022385762509 65.93827614237492 106.1145694996616 65.938 105.01 L 65.938 104.21 C 66.25721613964367 104.12582719968499 66.56894085935035 104.01545256717083 66.87 103.88 C 69.23860519654501 102.84750893579707 70.48525116115026 100.2284008726288 69.793 97.739 C 68.951 94.883 66.491 94.122 64.695 93.565" stroke-linecap="round" />
</g>
		<g transform="matrix(2.52 0 0 2.52 -1.21 0.54)"  >
<rect style="stroke: none; stroke-width: 1; stroke-dasharray: none; stroke-linecap: butt; stroke-dashoffset: 0; stroke-linejoin: miter; stroke-miterlimit: 4; fill: none; fill-rule: nonzero; opacity: 1;" vector-effect="non-scaling-stroke"  x="-197.76" y="-32.75" rx="0" ry="0" width="395.52" height="65.5" />
</g>
</g>
</g>
<g transform="matrix(0.58 0 0 0.16 608.89 326.81)"  >
<g style="" vector-effect="non-scaling-stroke"   >
		<g transform="matrix(1 0 0 1 0 0)"  >
<rect style="stroke: none; stroke-width: 1; stroke-dasharray: none; stroke-linecap: butt; stroke-dashoffset: 0; stroke-linejoin: miter; stroke-miterlimit: 4; fill: rgb(30,27,75); fill-rule: nonzero; opacity: 1;" vector-effect="non-scaling-stroke"  x="-750" y="-750" rx="0" ry="0" width="1500" height="1500" />
</g>
		<g transform="matrix(3.36 0 0 3.36 -116.24 0.65)"  >
<path style="stroke: none; stroke-width: 1; stroke-dasharray: none; stroke-linecap: butt; stroke-dashoffset: 0; stroke-linejoin: miter; stroke-miterlimit: 4; fill: rgb(147,51,234); fill-rule: nonzero; opacity: 1;" vector-effect="non-scaling-stroke"  transform=" translate(-116.22, 17)" d="M 16.6 -13.05 L 12.35 -13.05 L 7.85 -23.75 Q 6.85 -26.15 6.03 -27.68 Q 5.2 -29.2 4.2 -30 L 4.2 -30 Q 2.95 -31 2.55 -31.45 Q 2.15 -31.9 2.15 -32.4 L 2.15 -32.4 Q 2.15 -32.85 3 -33.38 Q 3.85 -33.9 4.95 -34.3 Q 6.05 -34.7 6.8 -34.7 L 6.8 -34.7 Q 8.85 -34.7 10.23 -33.02 Q 11.6 -31.35 12.6 -28.5 L 12.6 -28.5 L 16.3 -18.1 L 14.8 -17 L 19.8 -24.7 Q 21.2 -26.8 21.53 -28.35 Q 21.85 -29.9 21.95 -30.95 L 21.95 -30.95 Q 22.05 -31.85 23.05 -32.52 Q 24.05 -33.2 25.4 -33.7 Q 26.75 -34.2 27.98 -34.45 Q 29.2 -34.7 29.8 -34.7 L 29.8 -34.7 Q 30.7 -34.7 30.7 -33.9 L 30.7 -33.9 Q 30.7 -33.4 30.3 -32.65 Q 29.9 -31.9 29.2 -30.95 L 29.2 -30.95 L 16.6 -13.05 Z M 16.15 0.4 L 12.1 0.4 Q 11.2 0.4 10.85 -0.4 Q 10.5 -1.2 10.5 -2.55 L 10.5 -2.55 Q 10.5 -3.55 10.65 -4.8 L 10.65 -4.8 L 12 -16.95 L 17.95 -16.05 L 16.15 0.4 Z M 34.8 0.8 L 31.3 0.8 Q 30.45 0.8 30.2 -0.18 Q 29.95 -1.15 29.95 -2.2 L 29.95 -2.2 Q 29.95 -4 30.12 -5.4 Q 30.3 -6.8 30.5 -8.5 L 30.5 -8.5 L 32.3 -24.55 L 35.8 -24.55 Q 36.8 -24.55 37.1 -23.45 Q 37.4 -22.35 37.4 -20.95 L 37.4 -20.95 Q 37.4 -20.25 37.3 -19.48 Q 37.2 -18.7 37 -17.1 L 37 -17.1 L 36.05 -8.95 Q 35.75 -6.35 35.5 -4.6 Q 35.25 -2.85 35.1 -1.6 Q 34.95 -0.35 34.8 0.8 L 34.8 0.8 Z M 35.7 -27.4 L 35.7 -27.4 Q 34.3 -27.4 33.27 -28.35 Q 32.25 -29.3 32.25 -30.85 L 32.25 -30.85 Q 32.25 -32.7 33.45 -33.73 Q 34.65 -34.75 36.2 -34.75 L 36.2 -34.75 Q 37.65 -34.75 38.62 -33.9 Q 39.6 -33.05 39.6 -31.35 L 39.6 -31.35 Q 39.6 -29.65 38.45 -28.53 Q 37.3 -27.4 35.7 -27.4 Z M 48.55 0.8 L 48.55 0.8 Q 44.7 0.8 42.6 -1.63 Q 40.5 -4.05 40.5 -8.3 L 40.5 -8.3 Q 40.5 -11.85 41.5 -14.8 Q 42.5 -17.75 44.3 -19.95 Q 46.1 -22.15 48.52 -23.35 Q 50.95 -24.55 53.8 -24.55 L 53.8 -24.55 Q 57.2 -24.55 59 -23.1 Q 60.8 -21.65 60.8 -18.95 L 60.8 -18.95 Q 60.8 -16.2 58.97 -14.15 Q 57.15 -12.1 53.72 -10.65 Q 50.3 -9.2 45.55 -8.2 L 45.55 -8.2 L 44.9 -11.2 Q 47.65 -11.55 49.95 -12.4 Q 52.25 -13.25 53.65 -14.68 Q 55.05 -16.1 55.05 -18.05 L 55.05 -18.05 Q 55.05 -19.4 54.52 -20.1 Q 54 -20.8 52.65 -20.8 L 52.65 -20.8 Q 50.6 -20.8 49.17 -19.3 Q 47.75 -17.8 47.02 -15.4 Q 46.3 -13 46.3 -10.3 L 46.3 -10.3 Q 46.3 -6.65 47.42 -5.43 Q 48.55 -4.2 50.75 -4.2 L 50.75 -4.2 Q 53.05 -4.2 54.77 -4.93 Q 56.5 -5.65 57.75 -6.45 L 57.75 -6.45 Q 58.15 -6.7 58.45 -6.85 Q 58.75 -7 58.95 -7 L 58.95 -7 Q 59.2 -7 59.35 -6.8 Q 59.5 -6.6 59.5 -6.35 L 59.5 -6.35 Q 59.5 -5.45 58.7 -4.25 Q 57.9 -3.05 56.42 -1.9 Q 54.95 -0.75 52.95 0.03 Q 50.95 0.8 48.55 0.8 Z M 69.14 0.7 L 65.64 0.7 Q 64.74 0.7 64.24 -0.4 Q 63.74 -1.5 63.79 -2.95 L 63.79 -2.95 Q 63.84 -4.65 64.09 -7 Q 64.34 -9.35 64.59 -11.65 L 64.59 -11.65 L 65.99 -23.45 Q 66.29 -25.7 66.14 -27.45 Q 65.99 -29.2 65.74 -30.55 Q 65.49 -31.9 65.49 -32.85 L 65.49 -32.85 Q 65.49 -33.4 66.37 -33.83 Q 67.24 -34.25 68.39 -34.52 Q 69.54 -34.8 70.34 -34.8 L 70.34 -34.8 Q 71.19 -34.8 71.84 -33.58 Q 72.49 -32.35 72.49 -30.75 L 72.49 -30.75 Q 72.49 -30.4 72.39 -28.8 Q 72.29 -27.2 71.99 -25.15 L 71.99 -25.15 L 70.39 -13.65 Q 69.89 -10.05 69.69 -6.48 Q 69.49 -2.9 69.14 0.7 L 69.14 0.7 Z M 80.09 0.8 L 80.09 0.8 Q 77.39 0.8 76.22 -1.4 Q 75.04 -3.6 75.04 -7.85 L 75.04 -7.85 Q 75.04 -11.5 76.06 -14.55 Q 77.09 -17.6 78.94 -19.83 Q 80.79 -22.05 83.24 -23.28 Q 85.69 -24.5 88.54 -24.5 L 88.54 -24.5 Q 90.29 -24.5 92.02 -23.93 Q 93.74 -23.35 94.99 -22.75 L 94.99 -22.75 L 93.39 -17.85 Q 92.04 -18.75 90.56 -19.4 Q 89.09 -20.05 87.87 -20.4 Q 86.64 -20.75 85.99 -20.75 L 85.99 -20.75 Q 84.54 -20.75 83.34 -19.38 Q 82.14 -18 81.42 -15.58 Q 80.69 -13.15 80.69 -10 L 80.69 -10 Q 80.69 -7.1 81.12 -5.6 Q 81.54 -4.1 82.49 -4.1 L 82.49 -4.1 Q 83.29 -4.1 84.97 -5.58 Q 86.64 -7.05 88.87 -10.5 Q 91.09 -13.95 93.54 -19.85 L 93.54 -19.85 L 94.99 -15.4 Q 92.34 -9.4 89.74 -5.85 Q 87.14 -2.3 84.72 -0.75 Q 82.29 0.8 80.09 0.8 Z M 96.79 0.5 L 93.29 0.5 Q 92.74 0.5 92.34 -0.13 Q 91.94 -0.75 91.74 -1.65 Q 91.54 -2.55 91.54 -3.3 L 91.54 -3.3 Q 91.54 -4.55 91.97 -6.15 Q 92.39 -7.75 93.04 -10.2 L 93.04 -10.2 L 94.04 -13.95 L 92.59 -15.55 L 93.14 -20.8 L 93.84 -21.65 L 94.24 -34.8 L 98.14 -34.8 Q 98.89 -34.8 99.37 -34.15 Q 99.84 -33.5 100.06 -32.63 Q 100.29 -31.75 100.29 -30.95 L 100.29 -30.95 Q 100.29 -30.45 100.24 -29.83 Q 100.19 -29.2 100.04 -28.13 Q 99.89 -27.05 99.59 -25.15 L 99.59 -25.15 L 97.94 -13.65 Q 97.59 -11.25 97.34 -8.75 Q 97.09 -6.25 96.97 -3.9 Q 96.84 -1.55 96.79 0.5 L 96.79 0.5 Z M 127.99 0.4 L 123.99 0.4 Q 123.19 0.4 122.84 -0.73 Q 122.48 -1.85 122.48 -3.2 L 122.48 -3.2 Q 122.48 -4.55 122.66 -6.23 Q 122.84 -7.9 123.19 -10.8 L 123.19 -10.8 L 125.34 -29.8 L 118.64 -28.35 Q 118.04 -28.25 117.61 -28.18 Q 117.19 -28.1 116.98 -28.1 L 116.98 -28.1 Q 116.44 -28.1 116.19 -28.45 Q 115.94 -28.8 115.98 -29.3 L 115.98 -29.3 Q 116.04 -30.55 116.36 -31.6 Q 116.69 -32.65 117.19 -33.33 Q 117.69 -34 118.29 -34 L 118.29 -34 L 129.03 -34 Q 132.88 -34 135.06 -34.15 Q 137.24 -34.3 138.31 -34.43 Q 139.38 -34.55 139.94 -34.55 L 139.94 -34.55 Q 140.44 -34.55 140.63 -34.35 Q 140.84 -34.15 140.88 -33.55 L 140.88 -33.55 Q 140.94 -32.55 140.61 -31.45 Q 140.28 -30.35 139.76 -29.58 Q 139.24 -28.8 138.69 -28.8 L 138.69 -28.8 Q 138.34 -28.8 137.63 -28.93 Q 136.94 -29.05 136.03 -29.15 L 136.03 -29.15 L 131.28 -29.8 L 127.99 0.4 Z M 144.03 -1.2 L 144.03 -1.2 L 142.83 -8.75 Q 144.68 -13.55 146.61 -17.07 Q 148.53 -20.6 150.53 -22.55 Q 152.53 -24.5 154.58 -24.5 L 154.58 -24.5 Q 155.73 -24.5 156.23 -23.78 Q 156.73 -23.05 156.73 -21.95 L 156.73 -21.95 Q 156.73 -20.95 156.51 -20.03 Q 156.28 -19.1 155.86 -18.5 Q 155.43 -17.9 154.83 -17.9 L 154.83 -17.9 Q 154.28 -17.9 153.61 -18.25 Q 152.93 -18.6 151.78 -18.6 L 151.78 -18.6 Q 151.03 -18.6 149.88 -17.05 Q 148.73 -15.5 147.51 -12.93 Q 146.28 -10.35 145.33 -7.28 Q 144.38 -4.2 144.03 -1.2 Z M 139.83 0.7 L 139.83 0.7 Q 139.18 0.7 138.86 0.48 Q 138.53 0.25 138.51 -0.7 Q 138.48 -1.65 138.73 -3.75 L 138.73 -3.75 L 141.08 -24.55 L 144.58 -24.55 Q 145.33 -24.55 145.93 -23.45 Q 146.53 -22.35 146.53 -20.95 L 146.53 -20.95 Q 146.53 -20.3 146.16 -18.93 Q 145.78 -17.55 145.28 -16.03 Q 144.78 -14.5 144.38 -13.35 L 144.38 -13.35 L 143.08 -9.25 L 144.93 -9.55 L 144.03 -1.2 Q 143.98 -0.7 143.43 -0.33 Q 142.88 0.05 142.16 0.28 Q 141.43 0.5 140.78 0.6 Q 140.13 0.7 139.83 0.7 Z M 161.13 0.8 L 161.13 0.8 Q 158.33 0.8 157.13 -1.48 Q 155.93 -3.75 155.93 -7.85 L 155.93 -7.85 Q 155.93 -11.5 157.01 -14.55 Q 158.08 -17.6 159.93 -19.83 Q 161.78 -22.05 164.23 -23.28 Q 166.68 -24.5 169.43 -24.5 L 169.43 -24.5 Q 171.58 -24.5 173.36 -23.93 Q 175.13 -23.35 176.38 -22.75 L 176.38 -22.75 L 174.93 -17.5 Q 173.58 -18.4 171.91 -19.15 Q 170.23 -19.9 168.81 -20.33 Q 167.38 -20.75 166.68 -20.75 L 166.68 -20.75 Q 165.28 -20.75 164.11 -19.38 Q 162.93 -18 162.26 -15.58 Q 161.58 -13.15 161.58 -10 L 161.58 -10 Q 161.58 -7.1 162.01 -5.6 Q 162.43 -4.1 163.38 -4.1 L 163.38 -4.1 Q 164.03 -4.1 165.58 -5.58 Q 167.13 -7.05 169.33 -10.5 Q 171.53 -13.95 173.98 -19.85 L 173.98 -19.85 L 175.38 -15.4 Q 172.68 -9.4 170.23 -5.85 Q 167.78 -2.3 165.53 -0.75 Q 163.28 0.8 161.13 0.8 Z M 176.58 0.5 L 173.08 0.5 Q 172.08 0.5 171.88 -0.48 Q 171.68 -1.45 171.68 -2.55 L 171.68 -2.55 Q 171.68 -3.4 171.91 -4.65 Q 172.13 -5.9 172.48 -7.35 Q 172.83 -8.8 173.23 -10.2 L 173.23 -10.2 L 174.33 -13.95 L 172.88 -15.25 L 174.08 -22.8 Q 175.68 -23.05 176.91 -23.45 Q 178.13 -23.85 178.96 -24.15 Q 179.78 -24.45 180.13 -24.45 L 180.13 -24.45 Q 180.68 -24.45 180.68 -23.85 L 180.68 -23.85 Q 180.68 -23.6 180.06 -21.73 Q 179.43 -19.85 178.71 -16.95 Q 177.98 -14.05 177.63 -10.65 L 177.63 -10.65 L 176.58 0.5 Z M 187.68 0.8 L 187.68 0.8 Q 184.98 0.8 183.8 -1.4 Q 182.63 -3.6 182.63 -7.85 L 182.63 -7.85 Q 182.63 -11.5 183.65 -14.55 Q 184.68 -17.6 186.53 -19.83 Q 188.38 -22.05 190.83 -23.28 Q 193.28 -24.5 196.13 -24.5 L 196.13 -24.5 Q 197.88 -24.5 199.6 -23.93 Q 201.33 -23.35 202.58 -22.75 L 202.58 -22.75 L 200.98 -17.85 Q 199.63 -18.75 198.15 -19.4 Q 196.68 -20.05 195.45 -20.4 Q 194.23 -20.75 193.58 -20.75 L 193.58 -20.75 Q 192.13 -20.75 190.93 -19.38 Q 189.73 -18 189 -15.58 Q 188.28 -13.15 188.28 -10 L 188.28 -10 Q 188.28 -7.1 188.7 -5.6 Q 189.13 -4.1 190.08 -4.1 L 190.08 -4.1 Q 190.88 -4.1 192.55 -5.58 Q 194.23 -7.05 196.45 -10.5 Q 198.68 -13.95 201.13 -19.85 L 201.13 -19.85 L 202.58 -15.4 Q 199.93 -9.4 197.33 -5.85 Q 194.73 -2.3 192.3 -0.75 Q 189.88 0.8 187.68 0.8 Z M 204.38 0.5 L 200.88 0.5 Q 200.33 0.5 199.93 -0.13 Q 199.53 -0.75 199.33 -1.65 Q 199.13 -2.55 199.13 -3.3 L 199.13 -3.3 Q 199.13 -4.55 199.55 -6.15 Q 199.98 -7.75 200.63 -10.2 L 200.63 -10.2 L 201.63 -13.95 L 200.18 -15.55 L 200.73 -20.8 L 201.43 -21.65 L 201.83 -34.8 L 205.73 -34.8 Q 206.48 -34.8 206.95 -34.15 Q 207.43 -33.5 207.65 -32.63 Q 207.88 -31.75 207.88 -30.95 L 207.88 -30.95 Q 207.88 -30.45 207.83 -29.83 Q 207.78 -29.2 207.63 -28.13 Q 207.48 -27.05 207.18 -25.15 L 207.18 -25.15 L 205.53 -13.65 Q 205.18 -11.25 204.93 -8.75 Q 204.68 -6.25 204.55 -3.9 Q 204.43 -1.55 204.38 0.5 L 204.38 0.5 Z M 218.03 0.8 L 218.03 0.8 Q 214.18 0.8 212.08 -1.63 Q 209.98 -4.05 209.98 -8.3 L 209.98 -8.3 Q 209.98 -11.85 210.98 -14.8 Q 211.98 -17.75 213.78 -19.95 Q 215.58 -22.15 218 -23.35 Q 220.43 -24.55 223.28 -24.55 L 223.28 -24.55 Q 226.68 -24.55 228.48 -23.1 Q 230.28 -21.65 230.28 -18.95 L 230.28 -18.95 Q 230.28 -16.2 228.45 -14.15 Q 226.63 -12.1 223.2 -10.65 Q 219.78 -9.2 215.03 -8.2 L 215.03 -8.2 L 214.38 -11.2 Q 217.13 -11.55 219.43 -12.4 Q 221.73 -13.25 223.13 -14.68 Q 224.53 -16.1 224.53 -18.05 L 224.53 -18.05 Q 224.53 -19.4 224 -20.1 Q 223.48 -20.8 222.13 -20.8 L 222.13 -20.8 Q 220.08 -20.8 218.65 -19.3 Q 217.23 -17.8 216.5 -15.4 Q 215.78 -13 215.78 -10.3 L 215.78 -10.3 Q 215.78 -6.65 216.9 -5.43 Q 218.03 -4.2 220.23 -4.2 L 220.23 -4.2 Q 222.53 -4.2 224.25 -4.93 Q 225.98 -5.65 227.23 -6.45 L 227.23 -6.45 Q 227.63 -6.7 227.93 -6.85 Q 228.23 -7 228.43 -7 L 228.43 -7 Q 228.68 -7 228.83 -6.8 Q 228.98 -6.6 228.98 -6.35 L 228.98 -6.35 Q 228.98 -5.45 228.18 -4.25 Q 227.38 -3.05 225.9 -1.9 Q 224.43 -0.75 222.43 0.03 Q 220.43 0.8 218.03 0.8 Z" stroke-linecap="round" />
</g>
		<g transform="matrix(1.59 0 0 1.59 307.69 -47.03)"  >
<path style="stroke: none; stroke-width: 1; stroke-dasharray: none; stroke-linecap: butt; stroke-dashoffset: 0; stroke-linejoin: miter; stroke-miterlimit: 4; fill: rgb(147,51,234); fill-rule: nonzero; opacity: 1;" vector-effect="non-scaling-stroke"  transform=" translate(-8, -34)" d="M 5.928 39.472 C 7.639089291206077 40.49167017666051 9.598246204375632 41.019694452445876 11.589999999999996 40.998 C 12.598141592435399 41.007013548818286 13.602884546203748 40.87986495942276 14.577000000000004 40.62 C 15.510588141814686 40.33841214996027 16.105014963681114 39.4245918118671 15.984 38.457 C 15.441 34.11 13.751 30.923 10.96 28.982 C 8.162044301140956 27.208249225191842 4.783561889941788 26.593164582388596 1.5399999999999903 27.267000000000003 C 0.5007297558863533 27.51257586229324 -0.16227907763192562 28.531302582586264 0.03399999999999981 29.581 C 0.917 34.3 2.9 37.628 5.928 39.47 M 8.703 32.285 C 10.222193652637339 33.44948246035706 11.268916743607717 35.12416836939178 11.649999999999999 37 C 10.354636619948195 37.048003123573054 9.07408709409643 36.7111629222077 7.969999999999999 36.032 C 6.2443600346865615 34.83154567172371 5.011723957209105 33.04688755839612 4.500000000000001 31.008 C 5.995274206281617 31.016537112535037 7.455712323949436 31.460262897988713 8.702999999999992 32.28499999999999" stroke-linecap="round" />
</g>
		<g transform="matrix(1.59 0 0 1.59 309.28 -23.19)"  >
<path style="stroke: none; stroke-width: 1; stroke-dasharray: none; stroke-linecap: butt; stroke-dashoffset: 0; stroke-linejoin: miter; stroke-miterlimit: 4; fill: rgb(147,51,234); fill-rule: nonzero; opacity: 1;" vector-effect="non-scaling-stroke"  transform=" translate(-9, -49)" d="M 11.96 43.984 C 9.162313841512743 42.210509983882126 5.784242948875354 41.59543496733333 2.5409999999999986 42.269 C 1.5013251532209573 42.514131416581904 0.8377880489482801 43.53299330064758 1.0340000000000003 44.583 C 1.917 49.302 3.9 52.629 6.928 54.473 C 8.638987542878423 55.49302028442844 10.598151080217086 56.021392365233126 12.589999999999998 56 C 13.598141592435399 56.00901354881829 14.602884546203748 55.881864959422764 15.577000000000004 55.622 C 16.510588141814686 55.34041214996027 17.105014963681118 54.426591811867105 16.984 53.459 C 16.441 49.112 14.751 45.925 11.96 43.984 M 8.971 51.034 C 7.2449848664581324 49.833719103031704 6.011978453540788 48.049039120750884 5.499999999999999 46.01 C 6.995274206281618 46.018537112535036 8.455712323949445 46.46226289798872 9.703 47.287 C 11.221787997291186 48.45098700185837 12.26846915664918 50.124895486437346 12.649999999999999 52 C 11.355758936129423 52.04037145893067 10.077547785060329 51.70484103177503 8.969999999999999 51.034" stroke-linecap="round" />
</g>
		<g transform="matrix(1.59 0 0 1.59 345.83 -47.03)"  >
<path style="stroke: none; stroke-width: 1; stroke-dasharray: none; stroke-linecap: butt; stroke-dashoffset: 0; stroke-linejoin: miter; stroke-miterlimit: 4; fill: rgb(147,51,234); fill-rule: nonzero; opacity: 1;" vector-effect="non-scaling-stroke"  transform=" translate(-32, -34)" d="M 25.423 40.62 C 26.39743859090279 40.879954305194765 27.402523955847162 41.00710365859134 28.411000000000005 40.998 C 30.401737642260585 41.01914161651668 32.35978285163665 40.49113720062908 34.07 39.472 C 37.102 37.628 39.084 34.3 39.967 29.58 C 40.16255125258339 28.530028792201065 39.49862097500792 27.511679500402614 38.459 27.267 C 35.21577037115597 26.592361902225456 31.83729546773184 27.20751048056417 29.04 28.982 C 26.25 30.922 24.56 34.111 24.016 38.457 C 23.894985036318882 39.424591811867096 24.489411858185314 40.33841214996026 25.423 40.62 M 31.297 32.285 C 32.54428767605056 31.46026289798872 34.00472579371838 31.01653711253504 35.49999999999999 31.008 C 34.98802154645921 33.04703912075088 33.75501513354187 34.8317191030317 32.029 36.032 C 30.91050729323869 36.67593969436398 29.640574561447114 37.01007801574867 28.35 37 C 28.73108325639228 35.12416836939179 29.77780634736266 33.44948246035706 31.296999999999997 32.285" stroke-linecap="round" />
</g>
		<g transform="matrix(1.59 0 0 1.59 344.24 -23.19)"  >
<path style="stroke: none; stroke-width: 1; stroke-dasharray: none; stroke-linecap: butt; stroke-dashoffset: 0; stroke-linejoin: miter; stroke-miterlimit: 4; fill: rgb(147,51,234); fill-rule: nonzero; opacity: 1;" vector-effect="non-scaling-stroke"  transform=" translate(-31, -49)" d="M 28.04 43.984 C 25.249 45.924 23.559 49.112 23.016 53.459 C 22.894985036318882 54.4265918118671 23.489411858185314 55.340412149960265 24.423 55.622 C 25.39743859090279 55.88195430519477 26.402523955847162 56.00910365859134 27.411000000000005 56 C 29.401832724067404 56.020839520467305 31.359884553590533 55.49248731271296 33.07 54.473 C 36.102 52.63 38.084 49.302 38.967 44.583 C 39.16314504848762 43.532683860757245 38.4990794689854 42.51368667841764 37.459 42.269 C 34.21575705112465 41.59543496733333 30.83768615848725 42.210509983882126 28.039999999999996 43.984 M 31.029 51.034 C 29.91453314060856 51.68746967895143 28.641738927771307 52.021668974847266 27.35 52 C 27.731530843350818 50.124895486437346 28.778212002708813 48.45098700185837 30.297 47.287 C 31.544287676050555 46.46226289798872 33.00472579371838 46.01853711253504 34.49999999999999 46.01 C 33.98802154645921 48.049039120750884 32.75501513354187 49.833719103031704 31.029 51.034" stroke-linecap="round" />
</g>
		<g transform="matrix(1.59 0 0 1.59 447.52 -47.03)"  >
<path style="stroke: none; stroke-width: 1; stroke-dasharray: none; stroke-linecap: butt; stroke-dashoffset: 0; stroke-linejoin: miter; stroke-miterlimit: 4; fill: rgb(147,51,234); fill-rule: nonzero; opacity: 1;" vector-effect="non-scaling-stroke"  transform=" translate(-96, -34)" d="M 93.928 39.472 C 95.63908929120608 40.49167017666051 97.59824620437564 41.019694452445876 99.59 40.998 C 100.5981415924354 41.007013548818286 101.60288454620374 40.87986495942276 102.577 40.62 C 103.51058814181468 40.33841214996026 104.10501496368111 39.4245918118671 103.984 38.457 C 103.441 34.11 101.751 30.923 98.96 28.982 C 96.16204430114095 27.208249225191846 92.7835618899418 26.593164582388603 89.53999999999999 27.267000000000003 C 88.50072975588635 27.51257586229324 87.83772092236808 28.531302582586264 88.034 29.581 C 88.916 34.3 90.9 37.628 93.928 39.47 M 96.703 32.285 C 98.22219365263734 33.44948246035706 99.26891674360772 35.12416836939179 99.65 37 C 98.3546366199482 37.048003123573054 97.07408709409643 36.7111629222077 95.97 36.032 C 94.24436003468657 34.83154567172371 93.0117239572091 33.04688755839612 92.5 31.008000000000003 C 93.99527420628162 31.01653711253504 95.45571232394944 31.460262897988716 96.703 32.285" stroke-linecap="round" />
</g>
		<g transform="matrix(1.59 0 0 1.59 449.11 -23.19)"  >
<path style="stroke: none; stroke-width: 1; stroke-dasharray: none; stroke-linecap: butt; stroke-dashoffset: 0; stroke-linejoin: miter; stroke-miterlimit: 4; fill: rgb(147,51,234); fill-rule: nonzero; opacity: 1;" vector-effect="non-scaling-stroke"  transform=" translate(-97, -49)" d="M 99.96 43.984 C 97.16231384151274 42.210509983882126 93.78424294887535 41.59543496733333 90.541 42.269 C 89.50132515322096 42.51413141658191 88.83778804894828 43.53299330064758 89.034 44.583 C 89.917 49.302 91.9 52.629 94.928 54.473 C 96.63898754287843 55.49302028442844 98.59815108021708 56.02139236523313 100.59 56 C 101.5981415924354 56.00901354881829 102.60288454620374 55.881864959422764 103.577 55.622 C 104.51058814181468 55.340412149960265 105.10501496368111 54.4265918118671 104.984 53.459 C 104.441 49.112 102.751 45.925 99.96 43.984 M 96.971 51.034 C 95.24498486645814 49.833719103031704 94.01197845354079 48.049039120750884 93.5 46.01 C 94.99527420628162 46.018537112535036 96.45571232394944 46.46226289798872 97.703 47.287 C 99.22178799729119 48.45098700185837 100.26846915664919 50.124895486437346 100.65 52 C 99.35575893612942 52.04037145893067 98.07754778506033 51.70484103177503 96.97 51.034" stroke-linecap="round" />
</g>
		<g transform="matrix(1.59 0 0 1.59 485.65 -47.03)"  >
<path style="stroke: none; stroke-width: 1; stroke-dasharray: none; stroke-linecap: butt; stroke-dashoffset: 0; stroke-linejoin: miter; stroke-miterlimit: 4; fill: rgb(147,51,234); fill-rule: nonzero; opacity: 1;" vector-effect="non-scaling-stroke"  transform=" translate(-120, -34)" d="M 113.423 40.62 C 114.3974385909028 40.879954305194765 115.40252395584716 41.00710365859134 116.411 40.998 C 118.40173764226058 41.01914161651667 120.35978285163664 40.49113720062908 122.07 39.472 C 125.102 37.628 127.084 34.3 127.967 29.58 C 128.1625512525834 28.530028792201065 127.49862097500792 27.511679500402614 126.459 27.267 C 123.21577037115597 26.592361902225456 119.83729546773185 27.20751048056417 117.04 28.982 C 114.25 30.922 112.56 34.111 112.016 38.457 C 111.89498503631889 39.424591811867096 112.48941185818532 40.33841214996026 113.423 40.62 M 119.297 32.285 C 120.54428767605056 31.460262897988716 122.00472579371838 31.016537112535037 123.5 31.008 C 122.98802154645921 33.04703912075088 121.75501513354186 34.8317191030317 120.029 36.032 C 118.91162887453508 36.67866517168221 117.64093958412225 37.013002554971045 116.35 37 C 116.73108325639228 35.12416836939178 117.77780634736266 33.44948246035706 119.297 32.285" stroke-linecap="round" />
</g>
		<g transform="matrix(1.59 0 0 1.59 484.06 -23.19)"  >
<path style="stroke: none; stroke-width: 1; stroke-dasharray: none; stroke-linecap: butt; stroke-dashoffset: 0; stroke-linejoin: miter; stroke-miterlimit: 4; fill: rgb(147,51,234); fill-rule: nonzero; opacity: 1;" vector-effect="non-scaling-stroke"  transform=" translate(-119, -49)" d="M 116.04 43.984 C 113.249 45.924 111.559 49.112 111.016 53.459 C 110.89498503631889 54.4265918118671 111.48941185818532 55.340412149960265 112.423 55.622 C 113.3974385909028 55.88195430519477 114.40252395584716 56.00910365859134 115.411 56 C 117.4018327240674 56.020839520467305 119.35988455359053 55.49248731271296 121.07 54.473 C 124.102 52.63 126.084 49.302 126.967 44.583 C 127.16314504848762 43.532683860757245 126.4990794689854 42.51368667841764 125.459 42.269 C 122.21575705112464 41.59543496733333 118.83768615848726 42.210509983882126 116.04 43.984 M 119.029 51.034 C 117.91533602331135 51.689401170206864 116.64198850082715 52.02374574936417 115.35 52 C 115.73153084335081 50.124895486437346 116.77821200270881 48.45098700185837 118.297 47.287 C 119.54417790167345 46.46190969516499 121.00462423080349 46.01783393769932 122.5 46.009 C 121.98824066999046 48.04840601621061 120.75521238210395 49.83347289798236 119.029 51.034" stroke-linecap="round" />
</g>
		<g transform="matrix(1.59 0 0 1.59 377.6 -47.03)"  >
<path style="stroke: none; stroke-width: 1; stroke-dasharray: none; stroke-linecap: butt; stroke-dashoffset: 0; stroke-linejoin: miter; stroke-miterlimit: 4; fill: rgb(147,51,234); fill-rule: nonzero; opacity: 1;" vector-effect="non-scaling-stroke"  transform=" translate(-52, -34)" d="M 49.928 39.472 C 51.639089291206076 40.49167017666051 53.598246204375634 41.019694452445876 55.59 40.998 C 56.5981415924354 41.007013548818286 57.60288454620375 40.87986495942276 58.577 40.62 C 59.51058814181469 40.33841214996027 60.105014963681114 39.4245918118671 59.984 38.457 C 59.441 34.11 57.751 30.923 54.96 28.982 C 52.16231384151274 27.208509983882127 48.784242948875345 26.593434967333327 45.54099999999999 27.267 C 44.501325153220954 27.51213141658191 43.837788048948276 28.530993300647584 44.034 29.581 C 44.917 34.3 46.9 37.628 49.928 39.47 M 52.703 32.285 C 54.222193652637344 33.44948246035706 55.26891674360772 35.12416836939178 55.65 36.99999999999999 C 54.354636619948195 37.048003123573054 53.07408709409643 36.71116292220769 51.97 36.032 C 50.24436003468656 34.83154567172371 49.01172395720911 33.04688755839612 48.5 31.008000000000003 C 49.99527420628162 31.01653711253504 51.45571232394945 31.460262897988716 52.703 32.285" stroke-linecap="round" />
</g>
		<g transform="matrix(1.59 0 0 1.59 379.19 -23.19)"  >
<path style="stroke: none; stroke-width: 1; stroke-dasharray: none; stroke-linecap: butt; stroke-dashoffset: 0; stroke-linejoin: miter; stroke-miterlimit: 4; fill: rgb(147,51,234); fill-rule: nonzero; opacity: 1;" vector-effect="non-scaling-stroke"  transform=" translate(-53, -49)" d="M 55.96 43.984 C 53.16231384151274 42.210509983882126 49.78424294887535 41.59543496733333 46.541 42.269 C 45.501325153220954 42.514131416581904 44.837788048948276 43.53299330064758 45.034 44.583 C 45.917 49.302 47.9 52.629 50.928 54.473 C 52.638987542878425 55.49302028442844 54.598151080217086 56.02139236523313 56.59 56 C 57.5981415924354 56.00901354881829 58.60288454620375 55.881864959422764 59.577 55.622 C 60.51058814181469 55.34041214996027 61.105014963681114 54.426591811867105 60.984 53.459 C 60.441 49.112 58.751 45.925 55.96 43.984 M 52.971 51.034 C 51.24498486645813 49.833719103031704 50.01197845354079 48.049039120750884 49.5 46.01 C 50.99527420628162 46.018537112535036 52.45571232394945 46.46226289798872 53.703 47.287 C 55.22178799729119 48.45098700185837 56.26846915664918 50.124895486437346 56.65 52 C 55.35575893612942 52.04037145893067 54.077547785060325 51.70484103177503 52.97 51.034" stroke-linecap="round" />
</g>
		<g transform="matrix(1.59 0 0 1.59 415.74 -47.03)"  >
<path style="stroke: none; stroke-width: 1; stroke-dasharray: none; stroke-linecap: butt; stroke-dashoffset: 0; stroke-linejoin: miter; stroke-miterlimit: 4; fill: rgb(147,51,234); fill-rule: nonzero; opacity: 1;" vector-effect="non-scaling-stroke"  transform=" translate(-76, -34)" d="M 69.423 40.62 C 70.3974385909028 40.879954305194765 71.40252395584716 41.00710365859134 72.411 40.998 C 74.40173764226058 41.01914161651667 76.35978285163664 40.49113720062908 78.07 39.472 C 81.102 37.628 83.084 34.3 83.967 29.58 C 84.16255125258338 28.530028792201065 83.49862097500792 27.511679500402614 82.459 27.267 C 79.21577037115597 26.592361902225456 75.83729546773185 27.20751048056417 73.04 28.982 C 70.25 30.922 68.56 34.111 68.016 38.457 C 67.89498503631889 39.424591811867096 68.48941185818532 40.33841214996026 69.423 40.62 M 75.297 32.285 C 76.54428767605056 31.460262897988716 78.00472579371838 31.016537112535037 79.5 31.008 C 78.98802154645921 33.04703912075088 77.75501513354186 34.8317191030317 76.029 36.032 C 74.91087861337705 36.6768429846403 73.640695886726 37.01104708341666 72.35 37 C 72.73108325639228 35.12416836939178 73.77780634736266 33.44948246035706 75.297 32.285" stroke-linecap="round" />
</g>
		<g transform="matrix(1.59 0 0 1.59 414.15 -23.19)"  >
<path style="stroke: none; stroke-width: 1; stroke-dasharray: none; stroke-linecap: butt; stroke-dashoffset: 0; stroke-linejoin: miter; stroke-miterlimit: 4; fill: rgb(147,51,234); fill-rule: nonzero; opacity: 1;" vector-effect="non-scaling-stroke"  transform=" translate(-75, -49)" d="M 72.04 43.984 C 69.249 45.924 67.559 49.112 67.016 53.459 C 66.89498503631889 54.4265918118671 67.48941185818532 55.340412149960265 68.423 55.622 C 69.3974385909028 55.88195430519477 70.40252395584716 56.00910365859134 71.411 56 C 73.4018327240674 56.020839520467305 75.35988455359053 55.49248731271296 77.07 54.473 C 80.102 52.63 82.084 49.302 82.967 44.583 C 83.16314504848762 43.532683860757245 82.4990794689854 42.51368667841764 81.459 42.269 C 78.21575705112464 41.59543496733333 74.83768615848726 42.210509983882126 72.04 43.984 M 75.029 51.034 C 73.91533602331135 51.689401170206864 72.64198850082715 52.02374574936417 71.35 52 C 71.73153084335081 50.124895486437346 72.77821200270881 48.45098700185837 74.297 47.287 C 75.54428767605056 46.462262897988715 77.00472579371838 46.018537112535036 78.5 46.01 C 77.98802154645921 48.049039120750884 76.75501513354186 49.833719103031704 75.029 51.034" stroke-linecap="round" />
</g>
		<g transform="matrix(1.59 0 0 1.59 336.21 -15.2)"  >
<path style="stroke: none; stroke-width: 1; stroke-dasharray: none; stroke-linecap: butt; stroke-dashoffset: 0; stroke-linejoin: miter; stroke-miterlimit: 4; fill: rgb(147,51,234); fill-rule: nonzero; opacity: 1;" vector-effect="non-scaling-stroke"  transform=" translate(-25.94, -54)" d="M 42.82 88.009 C 43.48178634660113 86.63450065723022 44.221661707759935 85.29898556488581 45.035999999999994 84.00900000000001 L 34.264 84.009 L 36.639 80.007 L 47.779 80.007 L 47.9 79.844 C 48.86 78.55 49.896 77.306 50.896 76.103 L 50.973 76.007 L 39.013 76.007 L 41.39 72.007 L 51.876 72.007 C 51.72815278619287 71.56357596218092 51.55452358954836 71.12916906826841 51.356 70.706 L 51.211 70.52 L 51.296 70.593 L 51.168 70.393 C 50.66338893412876 69.64673765625544 50.244415983016644 68.84602633975855 49.919 68.006 L 43.764 68.006 L 46.139 64.006 L 49.462 64.006 C 49.688033470534485 62.486442561033655 50.40355483071051 61.082082678450675 51.5 60.006 L 22 60.006 L 22 32.86 C 25.453 28.768 29.273 19.924 21.302 12.533 C 20.559381166353027 11.844120454370163 19.418993955034956 11.819208040714251 18.647 12.475 C 16.019984520608485 14.878443631311212 14.376555288452169 18.169933480843447 14.033999999999999 21.714000000000006 C 13.764 25.396 15.112 29.053 18 32.598 L 18 60.005 L 2 60.005 C 0.8954305468925388 60.00500006583747 1.1920928955078125e-7 60.90043054689254 1.1920928955078125e-7 62.004999999999995 C 1.1920928955078125e-7 63.10956945310746 0.8954305468925385 64.00499993416253 1.9999999999999998 64.005 L 24.198 64.005 L 21.448 68.007 L 2 68.007 C 0.913127260332993 68.03130777123243 0.04471856437778099 68.91935547420154 0.04471856437778099 70.0065 C 0.04471856437778099 71.09364452579847 0.9131272603329925 71.98169222876757 1.9999999999999996 72.006 L 18.698 72.006 L 15.948 76.008 L 2 76.008 C 0.9131272603328655 76.03230777123225 0.044718564377463244 76.92035547420141 0.044718564377463244 78.0075 C 0.044718564377463244 79.09464452579859 0.9131272603328653 79.98269222876775 1.9999999999999998 80.007 L 13.198 80.007 L 10.448 84.009 L 2 84.009 C 0.913127260332993 84.03330777123243 0.04471856437778099 84.92135547420153 0.04471856437778099 86.0085 C 0.04471856437778099 87.09564452579846 0.9131272603329925 87.98369222876757 1.9999999999999996 88.008 L 7.698 88.008 L 4.948 92.01 L 2 92.01 C 0.8954305003384131 92.01 0 92.90543050033841 0 94.01 C 0 95.1145694996616 0.8954305003384131 96.01 2 96.01 L 40.306 96.01 C 40.514003688651066 94.65499049247939 40.824902744288394 93.31779025317906 41.23599999999999 92.01 L 29.514 92.01 L 31.889 88.01 Z M 18.02 22.049 C 18.18024716053715 20.204462767413254 18.857123417316142 18.442435686274294 19.973 16.965000000000003 C 23.552 21.51 21.685 26.154 20.072 28.714 C 18.65818835155593 26.786566288183348 17.935277386584218 24.43886713098478 18.02 22.049999999999997 M 29.052 64.007 L 41.486 64.007 L 39.111 68.006 L 26.301 68.006 Z M 23.552 72.006 L 36.736 72.006 L 34.361 76.008 L 20.801 76.008 Z M 18.052 80.009 L 31.986 80.009 L 29.611 84.008 L 15.301 84.008 Z M 24.862 92.009 L 9.801 92.009 L 12.552 88.01 L 27.236 88.01 Z" stroke-linecap="round" />
</g>
		<g transform="matrix(1.59 0 0 1.59 396.68 38.78)"  >
<path style="stroke: none; stroke-width: 1; stroke-dasharray: none; stroke-linecap: butt; stroke-dashoffset: 0; stroke-linejoin: miter; stroke-miterlimit: 4; fill: rgb(147,51,234); fill-rule: nonzero; opacity: 1;" vector-effect="non-scaling-stroke"  transform=" translate(-64, -87.99)" d="M 74.03 78.66 C 73.047 77.482 72.04 76.269 71.148 75.06 C 71.53890773958287 72.82101721855967 72.19624418450306 70.63683391383509 73.106 68.554 C 73.201 68.343 73.4 68.01 73.608 67.655 C 74.452 66.229 75.608 64.276 75.016 62.294 C 74.43584415665963 60.6452502831931 72.71716120432637 59.68809060604495 71.01 60.063 C 69.65001518672295 60.430567892008476 68.44626113953873 61.230029034715656 67.58 62.341 C 67.26698039010148 62.68657480011776 66.93230527225512 63.01189771906223 66.578 63.315 L 66.492 63.178 C 66.14440478956281 62.53171501018037 65.6472334114222 61.97796895797549 65.042 61.563 C 63.47 60.596 61.913 61.13 60.413 63.148 C 60.301 63.298 60.198 63.445 60.097 63.556 C 60.04455332204891 63.61353741649507 59.988791759589404 63.66796337266812 59.93 63.719 C 59.720964206283085 63.58287652822364 59.518409558985816 63.437050530087056 59.323 63.282 C 58.73060617221667 62.7842720477157 58.057611232419134 62.39129711301986 57.33299999999999 62.12 C 56.44208198598462 61.8330895083301 55.46830505546951 61.97843486863866 54.7 62.513 C 53.892406693151194 63.08402455606558 53.40340281931312 64.0041532412844 53.382 64.993 C 53.41061766459931 66.1601224624511 53.80987980856935 67.28786290419104 54.522 68.213 L 54.736 68.55 C 54.75 68.57 55.906 70.445 56.796 75.131 C 55.92 76.314 54.933 77.503 53.972 78.66 C 53.005 79.822 52.006 81.023 51.11 82.23 C 47.333 87.31 43.54 93.552 44.045 101.315 C 44.656 110.73 53.386 115.487 61.31 115.926 C 63.12633179971284 116.02588630139184 64.94681669630933 116.02455090077082 66.76300000000003 115.922 C 74.615 115.487 83.343 110.732 83.953 101.315 C 84.459 93.549 80.667 87.309 76.89 82.23 C 75.994 81.024 74.995 79.823 74.03 78.66 M 63.036 66.269 C 63.17211843110706 66.11771471888457 63.30157474301079 65.96056543304267 63.424 65.798 C 63.8561267458157 66.47695206470765 64.51081893102602 66.98458596209535 65.276 67.234 C 67.724 67.973 69.364 66.272 70.454 65.124 C 70.344 65.315 70.243 65.487 70.166 65.617 C 69.90776615901476 66.03561448499772 69.67177224855561 66.46754676241517 69.459 66.91100000000002 C 68.73652171652745 68.55582461090589 68.16029596113552 70.26107806588685 67.737 72.00700000000002 L 60.203 72.007 C 59.842022424503114 70.4834785172507 59.345718125349755 68.99523494453662 58.72 67.56 C 60.287204866578065 68.09790678197332 62.02296724842735 67.57842450322667 63.037 66.268 M 79.962 101.055 C 79.507 108.078 72.894 111.575 66.541 111.927 C 64.84796165854277 112.02068346496783 63.151038341457216 112.02068346496783 61.45799999999999 111.927 C 55.106 111.576 48.493 108.078 48.038 101.055 C 47.618 94.602 50.809 89.341 54.32 84.617 C 55.15 83.497 56.072 82.39 57.047 81.217 C 58.239 79.782 59.473 78.297 60.55 76.765 L 61.026 76.09 L 61.012 76.007 C 61.012 76.007 66.935 76.007 66.932 76.03 L 67.395 76.694 C 68.488 78.254 69.742 79.762 70.954 81.219 C 71.928 82.39 72.849 83.499 73.68 84.617 C 77.19 89.34 80.381 94.599 79.962 101.055" stroke-linecap="round" />
</g>
		<g transform="matrix(1.59 0 0 1.59 457.1 -15.2)"  >
<path style="stroke: none; stroke-width: 1; stroke-dasharray: none; stroke-linecap: butt; stroke-dashoffset: 0; stroke-linejoin: miter; stroke-miterlimit: 4; fill: rgb(147,51,234); fill-rule: nonzero; opacity: 1;" vector-effect="non-scaling-stroke"  transform=" translate(-102.02, -54)" d="M 126 64.006 C 127.1045694996616 64.006 128 63.11056949966159 128 62.006 C 128 60.901430500338414 127.1045694996616 60.006 126 60.006 L 110 60.006 L 110 32.86 C 113.453 28.768 117.273 19.924 109.302 12.533 C 108.55938116635303 11.844120454370163 107.41899395503496 11.819208040714251 106.647 12.475 C 104.01998452060849 14.878443631311212 102.37655528845218 18.16993348084345 102.034 21.714000000000013 C 101.764 25.396 103.112 29.053 106 32.598 L 106 60.005 L 78.389 60.005 C 78.57512543416183 60.370808666793245 78.728717188172 60.75227838263551 78.848 61.145 C 79.1233570045206 62.07138267942742 79.22639642219539 63.04042772920439 79.152 64.004 L 81.862 64.004 L 84.235 68.007 L 77.982 68.007 C 77.69308729038356 68.58042694936199 77.3821900716969 69.14251044022791 77.05 69.692 C 76.93 69.898 76.812 70.086 76.726 70.255 C 76.47166669898215 70.82800405066261 76.24441578086959 71.41264958448524 76.045 72.007 L 86.61 72.007 L 88.986 76.007 L 77.026 76.007 L 77.105 76.103 C 78.105 77.306 79.139 78.549 80.101 79.843 L 80.22 80.008 L 91.361 80.008 L 93.736 84.008 L 82.966 84.008 C 83.77965623974966 85.29803312563355 84.5188633308541 86.63354729203724 85.18 88.00799999999998 L 96.11 88.008 L 98.486 92.01 L 86.764 92.01 C 87.1750972557116 93.31779025317906 87.48599631134893 94.65499049247939 87.694 96.01 L 126 96.01 C 127.1045694996616 96.01 128 95.1145694996616 128 94.01 C 128 92.90543050033841 127.1045694996616 92.01 126 92.01 L 123.052 92.01 L 120.302 88.01 L 126 88.01 C 127.10484564203651 88.01 128.0005 87.11434564203651 128.0005 86.0095 C 128.0005 84.9046543579635 127.10484564203651 84.009 126 84.009 L 117.552 84.009 L 114.802 80.007 L 126 80.007 C 127.08687273966713 79.98269222876775 127.95528143562254 79.09464452579859 127.95528143562254 78.0075 C 127.95528143562254 76.92035547420141 127.08687273966713 76.03230777123225 126 76.008 L 112.052 76.008 L 109.302 72.006 L 126 72.006 C 127.086872739667 71.98169222876757 127.95528143562223 71.09364452579847 127.95528143562223 70.0065 C 127.95528143562223 68.91935547420154 127.086872739667 68.03130777123243 126 68.007 L 106.552 68.007 L 103.802 64.005 Z M 106.02 22.05 C 106.1798794457733 20.20476791623036 106.85677416714569 18.44199958397231 107.973 16.964000000000002 C 111.552 21.51 109.685 26.154 108.072 28.714 C 106.65818835155594 26.78656628818335 105.93527738658422 24.438867130984782 106.02 22.050000000000004 M 118.198 92.01 L 103.138 92.01 L 100.765 88.008 L 115.448 88.008 Z M 112.698 84.007 L 98.388 84.007 L 96.015 80.008 L 109.948 80.008 Z M 107.198 76.008 L 93.638 76.008 L 91.265 72.006 L 104.448 72.006 Z M 101.698 68.005 L 88.888 68.005 L 86.515 64.006 L 98.948 64.006 Z" stroke-linecap="round" />
</g>
		<g transform="matrix(1.59 0 0 1.59 396.68 -45.74)"  >
<path style="stroke: none; stroke-width: 1; stroke-dasharray: none; stroke-linecap: butt; stroke-dashoffset: 0; stroke-linejoin: miter; stroke-miterlimit: 4; fill: rgb(147,51,234); fill-rule: nonzero; opacity: 1;" vector-effect="non-scaling-stroke"  transform=" translate(-64.01, -34.8)" d="M 62 57.278 C 63.335366627436564 56.98050614733203 64.72941708735013 57.09272720935507 66 57.6 L 66 32.86 C 69.453 28.767 73.273 19.923 65.302 12.532 C 64.5591249907545 11.843412962743205 63.418743348274376 11.818930193017643 62.647 12.474999999999998 C 60.01998452060848 14.878443631311212 58.37655528845217 18.16993348084345 58.034 21.714000000000013 C 57.764 25.396 59.112 29.053 62 32.598 Z M 62.02 22.05 C 62.179879445773295 20.20476791623036 62.85677416714568 18.44199958397231 63.973 16.964 C 67.552 21.51 65.685 26.154 64.072 28.714 C 62.65818835155593 26.786566288183348 61.935277386584225 24.43886713098478 62.02 22.049999999999997" stroke-linecap="round" />
</g>
		<g transform="matrix(1.59 0 0 1.59 396.66 49.91)"  >
<path style="stroke: none; stroke-width: 1; stroke-dasharray: none; stroke-linecap: butt; stroke-dashoffset: 0; stroke-linejoin: miter; stroke-miterlimit: 4; fill: rgb(147,51,234); fill-rule: nonzero; opacity: 1;" vector-effect="non-scaling-stroke"  transform=" translate(-63.99, -95.01)" d="M 64.695 93.566 C 63.39 93.162 62.572 92.882 62.223 92.256 C 61.94372379234495 91.77615339109721 61.92789651036229 91.18715239731372 62.181 90.693 C 62.812209978409896 90.00593611560015 63.78216780652319 89.7429230823853 64.674 90.017 C 65.11228677542236 90.12933038468033 65.50882823050831 90.36579687409673 65.816 90.698 C 66.31384959953702 91.2106761215182 67.04739105525665 91.41880879413453 67.74030640017361 91.24399645443067 C 68.43322174509058 91.0691841147268 68.98024065479368 90.53798491565276 69.17530640017361 89.85049645443067 C 69.37037214555356 89.1630079932086 69.18384959953703 88.42367612151821 68.686 87.911 C 67.92768530141127 87.12647907900227 66.98138928777321 86.5488564122563 65.937 86.233 L 65.937 85.008 C 65.937 83.9034305003384 65.04156949966159 83.008 63.937 83.008 C 62.83243050033841 83.008 61.937 83.9034305003384 61.937 85.008 L 61.937 86.228 C 60.606273076191286 86.5883235538688 59.46601082105607 87.44844597755076 58.754 88.629 C 57.76112093816543 90.35316565485556 57.75199694798559 92.47335287289549 58.73 94.206 C 59.874 96.26 61.89 96.885 63.511 97.388 C 65.223 97.918 65.752 98.177 65.956 98.868 C 66.06893081901113 99.45451959751492 65.74417369818109 100.03739536503066 65.186 100.25 C 64.01524285729688 100.70409489971803 62.6852226058395 100.34434528555593 61.903 99.362 C 61.1982846592159 98.51120534288566 59.93729465711433 98.3927846592159 59.086499999999994 99.0975 C 58.23570534288566 99.8022153407841 58.11728465921591 101.06320534288567 58.822 101.914 C 59.64461946826526 102.90246779515961 60.72227664064114 103.64672910291087 61.938 104.066 L 61.938 105.011 C 61.93827614237492 106.11556949966159 62.83393050033841 107.01077614237491 63.9385 107.0105 C 65.04306949966158 107.01022385762509 65.93827614237492 106.1145694996616 65.938 105.01 L 65.938 104.21 C 66.25721613964367 104.12582719968499 66.56894085935035 104.01545256717083 66.87 103.88 C 69.23860519654501 102.84750893579707 70.48525116115026 100.2284008726288 69.793 97.739 C 68.951 94.883 66.491 94.122 64.695 93.565" stroke-linecap="round" />
</g>
		<g transform="matrix(2.52 0 0 2.52 -1.21 0.54)"  >
<rect style="stroke: none; stroke-width: 1; stroke-dasharray: none; stroke-linecap: butt; stroke-dashoffset: 0; stroke-linejoin: miter; stroke-miterlimit: 4; fill: none; fill-rule: nonzero; opacity: 1;" vector-effect="non-scaling-stroke"  x="-197.76" y="-32.75" rx="0" ry="0" width="395.52" height="65.5" />
</g>
</g>
</g>
</svg>