<svg xmlns="http://www.w3.org/2000/svg" version="1.1" xmlns:xlink="http://www.w3.org/1999/xlink" xmlns:svgjs="http://svgjs.dev/svgjs" width="1500" height="1500" viewBox="0 0 1500 1500"><rect width="1500" height="1500" fill="#1e1b4b"></rect><g transform="matrix(0.6666666666666666,0,0,0.6666666666666666,249.39393939393943,668.6305986376469)"><svg viewBox="0 0 396 65" data-background-color="#1e1b4b" preserveAspectRatio="xMidYMid meet" height="246" width="1500" xmlns="http://www.w3.org/2000/svg" xmlns:xlink="http://www.w3.org/1999/xlink"><g id="tight-bounds" transform="matrix(1,0,0,1,0.2400000000000091,-0.2478879368133562)"><svg viewBox="0 0 395.52 65.49577587362673" height="65.49577587362673" width="395.52"><g><svg viewBox="0 0 515.0639745654598 85.29155197896121" height="65.49577587362673" width="395.52"><g transform="matrix(1,0,0,1,0,11.787761525312298)"><svg viewBox="0 0 395.52 61.71602892833661" height="61.71602892833661" width="395.52"><g id="textblocktransform"><svg viewBox="0 0 395.52 61.71602892833661" height="61.71602892833661" width="395.52" id="textblock"><g><svg viewBox="0 0 395.52 61.71602892833661" height="61.71602892833661" width="395.52"><g transform="matrix(1,0,0,1,0,0)"><svg width="395.52" viewBox="2.15 -34.8 228.13 35.599999999999994" height="61.71602892833661" data-palette-color="#9333ea"><path d="M16.6-13.05L12.35-13.05 7.85-23.75Q6.85-26.15 6.03-27.68 5.2-29.2 4.2-30L4.2-30Q2.95-31 2.55-31.45 2.15-31.9 2.15-32.4L2.15-32.4Q2.15-32.85 3-33.38 3.85-33.9 4.95-34.3 6.05-34.7 6.8-34.7L6.8-34.7Q8.85-34.7 10.23-33.02 11.6-31.35 12.6-28.5L12.6-28.5 16.3-18.1 14.8-17 19.8-24.7Q21.2-26.8 21.53-28.35 21.85-29.9 21.95-30.95L21.95-30.95Q22.05-31.85 23.05-32.52 24.05-33.2 25.4-33.7 26.75-34.2 27.98-34.45 29.2-34.7 29.8-34.7L29.8-34.7Q30.7-34.7 30.7-33.9L30.7-33.9Q30.7-33.4 30.3-32.65 29.9-31.9 29.2-30.95L29.2-30.95 16.6-13.05ZM16.15 0.4L12.1 0.4Q11.2 0.4 10.85-0.4 10.5-1.2 10.5-2.55L10.5-2.55Q10.5-3.55 10.65-4.8L10.65-4.8 12-16.95 17.95-16.05 16.15 0.4ZM34.8 0.8L31.3 0.8Q30.45 0.8 30.2-0.18 29.95-1.15 29.95-2.2L29.95-2.2Q29.95-4 30.12-5.4 30.3-6.8 30.5-8.5L30.5-8.5 32.3-24.55 35.8-24.55Q36.8-24.55 37.1-23.45 37.4-22.35 37.4-20.95L37.4-20.95Q37.4-20.25 37.3-19.48 37.2-18.7 37-17.1L37-17.1 36.05-8.95Q35.75-6.35 35.5-4.6 35.25-2.85 35.1-1.6 34.95-0.35 34.8 0.8L34.8 0.8ZM35.7-27.4L35.7-27.4Q34.3-27.4 33.27-28.35 32.25-29.3 32.25-30.85L32.25-30.85Q32.25-32.7 33.45-33.73 34.65-34.75 36.2-34.75L36.2-34.75Q37.65-34.75 38.62-33.9 39.6-33.05 39.6-31.35L39.6-31.35Q39.6-29.65 38.45-28.53 37.3-27.4 35.7-27.4ZM48.55 0.8L48.55 0.8Q44.7 0.8 42.6-1.63 40.5-4.05 40.5-8.3L40.5-8.3Q40.5-11.85 41.5-14.8 42.5-17.75 44.3-19.95 46.1-22.15 48.52-23.35 50.95-24.55 53.8-24.55L53.8-24.55Q57.2-24.55 59-23.1 60.8-21.65 60.8-18.95L60.8-18.95Q60.8-16.2 58.97-14.15 57.15-12.1 53.72-10.65 50.3-9.2 45.55-8.2L45.55-8.2 44.9-11.2Q47.65-11.55 49.95-12.4 52.25-13.25 53.65-14.68 55.05-16.1 55.05-18.05L55.05-18.05Q55.05-19.4 54.52-20.1 54-20.8 52.65-20.8L52.65-20.8Q50.6-20.8 49.17-19.3 47.75-17.8 47.02-15.4 46.3-13 46.3-10.3L46.3-10.3Q46.3-6.65 47.42-5.43 48.55-4.2 50.75-4.2L50.75-4.2Q53.05-4.2 54.77-4.93 56.5-5.65 57.75-6.45L57.75-6.45Q58.15-6.7 58.45-6.85 58.75-7 58.95-7L58.95-7Q59.2-7 59.35-6.8 59.5-6.6 59.5-6.35L59.5-6.35Q59.5-5.45 58.7-4.25 57.9-3.05 56.42-1.9 54.95-0.75 52.95 0.03 50.95 0.8 48.55 0.8ZM69.14 0.7L65.64 0.7Q64.74 0.7 64.24-0.4 63.74-1.5 63.79-2.95L63.79-2.95Q63.84-4.65 64.09-7 64.34-9.35 64.59-11.65L64.59-11.65 65.99-23.45Q66.29-25.7 66.14-27.45 65.99-29.2 65.74-30.55 65.49-31.9 65.49-32.85L65.49-32.85Q65.49-33.4 66.37-33.83 67.24-34.25 68.39-34.52 69.54-34.8 70.34-34.8L70.34-34.8Q71.19-34.8 71.84-33.58 72.49-32.35 72.49-30.75L72.49-30.75Q72.49-30.4 72.39-28.8 72.29-27.2 71.99-25.15L71.99-25.15 70.39-13.65Q69.89-10.05 69.69-6.48 69.49-2.9 69.14 0.7L69.14 0.7ZM80.09 0.8L80.09 0.8Q77.39 0.8 76.22-1.4 75.04-3.6 75.04-7.85L75.04-7.85Q75.04-11.5 76.06-14.55 77.09-17.6 78.94-19.83 80.79-22.05 83.24-23.28 85.69-24.5 88.54-24.5L88.54-24.5Q90.29-24.5 92.02-23.93 93.74-23.35 94.99-22.75L94.99-22.75 93.39-17.85Q92.04-18.75 90.56-19.4 89.09-20.05 87.87-20.4 86.64-20.75 85.99-20.75L85.99-20.75Q84.54-20.75 83.34-19.38 82.14-18 81.42-15.58 80.69-13.15 80.69-10L80.69-10Q80.69-7.1 81.12-5.6 81.54-4.1 82.49-4.1L82.49-4.1Q83.29-4.1 84.97-5.58 86.64-7.05 88.87-10.5 91.09-13.95 93.54-19.85L93.54-19.85 94.99-15.4Q92.34-9.4 89.74-5.85 87.14-2.3 84.72-0.75 82.29 0.8 80.09 0.8ZM96.79 0.5L93.29 0.5Q92.74 0.5 92.34-0.13 91.94-0.75 91.74-1.65 91.54-2.55 91.54-3.3L91.54-3.3Q91.54-4.55 91.97-6.15 92.39-7.75 93.04-10.2L93.04-10.2 94.04-13.95 92.59-15.55 93.14-20.8 93.84-21.65 94.24-34.8 98.14-34.8Q98.89-34.8 99.37-34.15 99.84-33.5 100.06-32.63 100.29-31.75 100.29-30.95L100.29-30.95Q100.29-30.45 100.24-29.83 100.19-29.2 100.04-28.13 99.89-27.05 99.59-25.15L99.59-25.15 97.94-13.65Q97.59-11.25 97.34-8.75 97.09-6.25 96.97-3.9 96.84-1.55 96.79 0.5L96.79 0.5ZM127.99 0.4L123.99 0.4Q123.19 0.4 122.84-0.73 122.48-1.85 122.48-3.2L122.48-3.2Q122.48-4.55 122.66-6.23 122.84-7.9 123.19-10.8L123.19-10.8 125.34-29.8 118.64-28.35Q118.04-28.25 117.61-28.18 117.19-28.1 116.98-28.1L116.98-28.1Q116.44-28.1 116.19-28.45 115.94-28.8 115.98-29.3L115.98-29.3Q116.04-30.55 116.36-31.6 116.69-32.65 117.19-33.33 117.69-34 118.29-34L118.29-34 129.03-34Q132.88-34 135.06-34.15 137.24-34.3 138.31-34.43 139.38-34.55 139.94-34.55L139.94-34.55Q140.44-34.55 140.63-34.35 140.84-34.15 140.88-33.55L140.88-33.55Q140.94-32.55 140.61-31.45 140.28-30.35 139.76-29.58 139.24-28.8 138.69-28.8L138.69-28.8Q138.34-28.8 137.63-28.93 136.94-29.05 136.03-29.15L136.03-29.15 131.28-29.8 127.99 0.4ZM144.03-1.2L144.03-1.2 142.83-8.75Q144.68-13.55 146.61-17.07 148.53-20.6 150.53-22.55 152.53-24.5 154.58-24.5L154.58-24.5Q155.73-24.5 156.23-23.78 156.73-23.05 156.73-21.95L156.73-21.95Q156.73-20.95 156.51-20.03 156.28-19.1 155.86-18.5 155.43-17.9 154.83-17.9L154.83-17.9Q154.28-17.9 153.61-18.25 152.93-18.6 151.78-18.6L151.78-18.6Q151.03-18.6 149.88-17.05 148.73-15.5 147.51-12.93 146.28-10.35 145.33-7.28 144.38-4.2 144.03-1.2ZM139.83 0.7L139.83 0.7Q139.18 0.7 138.86 0.48 138.53 0.25 138.51-0.7 138.48-1.65 138.73-3.75L138.73-3.75 141.08-24.55 144.58-24.55Q145.33-24.55 145.93-23.45 146.53-22.35 146.53-20.95L146.53-20.95Q146.53-20.3 146.16-18.93 145.78-17.55 145.28-16.03 144.78-14.5 144.38-13.35L144.38-13.35 143.08-9.25 144.93-9.55 144.03-1.2Q143.98-0.7 143.43-0.33 142.88 0.05 142.16 0.28 141.43 0.5 140.78 0.6 140.13 0.7 139.83 0.7ZM161.13 0.8L161.13 0.8Q158.33 0.8 157.13-1.48 155.93-3.75 155.93-7.85L155.93-7.85Q155.93-11.5 157.01-14.55 158.08-17.6 159.93-19.83 161.78-22.05 164.23-23.28 166.68-24.5 169.43-24.5L169.43-24.5Q171.58-24.5 173.36-23.93 175.13-23.35 176.38-22.75L176.38-22.75 174.93-17.5Q173.58-18.4 171.91-19.15 170.23-19.9 168.81-20.33 167.38-20.75 166.68-20.75L166.68-20.75Q165.28-20.75 164.11-19.38 162.93-18 162.26-15.58 161.58-13.15 161.58-10L161.58-10Q161.58-7.1 162.01-5.6 162.43-4.1 163.38-4.1L163.38-4.1Q164.03-4.1 165.58-5.58 167.13-7.05 169.33-10.5 171.53-13.95 173.98-19.85L173.98-19.85 175.38-15.4Q172.68-9.4 170.23-5.85 167.78-2.3 165.53-0.75 163.28 0.8 161.13 0.8ZM176.58 0.5L173.08 0.5Q172.08 0.5 171.88-0.48 171.68-1.45 171.68-2.55L171.68-2.55Q171.68-3.4 171.91-4.65 172.13-5.9 172.48-7.35 172.83-8.8 173.23-10.2L173.23-10.2 174.33-13.95 172.88-15.25 174.08-22.8Q175.68-23.05 176.91-23.45 178.13-23.85 178.96-24.15 179.78-24.45 180.13-24.45L180.13-24.45Q180.68-24.45 180.68-23.85L180.68-23.85Q180.68-23.6 180.06-21.73 179.43-19.85 178.71-16.95 177.98-14.05 177.63-10.65L177.63-10.65 176.58 0.5ZM187.68 0.8L187.68 0.8Q184.98 0.8 183.8-1.4 182.63-3.6 182.63-7.85L182.63-7.85Q182.63-11.5 183.65-14.55 184.68-17.6 186.53-19.83 188.38-22.05 190.83-23.28 193.28-24.5 196.13-24.5L196.13-24.5Q197.88-24.5 199.6-23.93 201.33-23.35 202.58-22.75L202.58-22.75 200.98-17.85Q199.63-18.75 198.15-19.4 196.68-20.05 195.45-20.4 194.23-20.75 193.58-20.75L193.58-20.75Q192.13-20.75 190.93-19.38 189.73-18 189-15.58 188.28-13.15 188.28-10L188.28-10Q188.28-7.1 188.7-5.6 189.13-4.1 190.08-4.1L190.08-4.1Q190.88-4.1 192.55-5.58 194.23-7.05 196.45-10.5 198.68-13.95 201.13-19.85L201.13-19.85 202.58-15.4Q199.93-9.4 197.33-5.85 194.73-2.3 192.3-0.75 189.88 0.8 187.68 0.8ZM204.38 0.5L200.88 0.5Q200.33 0.5 199.93-0.13 199.53-0.75 199.33-1.65 199.13-2.55 199.13-3.3L199.13-3.3Q199.13-4.55 199.55-6.15 199.98-7.75 200.63-10.2L200.63-10.2 201.63-13.95 200.18-15.55 200.73-20.8 201.43-21.65 201.83-34.8 205.73-34.8Q206.48-34.8 206.95-34.15 207.43-33.5 207.65-32.63 207.88-31.75 207.88-30.95L207.88-30.95Q207.88-30.45 207.83-29.83 207.78-29.2 207.63-28.13 207.48-27.05 207.18-25.15L207.18-25.15 205.53-13.65Q205.18-11.25 204.93-8.75 204.68-6.25 204.55-3.9 204.43-1.55 204.38 0.5L204.38 0.5ZM218.03 0.8L218.03 0.8Q214.18 0.8 212.08-1.63 209.98-4.05 209.98-8.3L209.98-8.3Q209.98-11.85 210.98-14.8 211.98-17.75 213.78-19.95 215.58-22.15 218-23.35 220.43-24.55 223.28-24.55L223.28-24.55Q226.68-24.55 228.48-23.1 230.28-21.65 230.28-18.95L230.28-18.95Q230.28-16.2 228.45-14.15 226.63-12.1 223.2-10.65 219.78-9.2 215.03-8.2L215.03-8.2 214.38-11.2Q217.13-11.55 219.43-12.4 221.73-13.25 223.13-14.68 224.53-16.1 224.53-18.05L224.53-18.05Q224.53-19.4 224-20.1 223.48-20.8 222.13-20.8L222.13-20.8Q220.08-20.8 218.65-19.3 217.23-17.8 216.5-15.4 215.78-13 215.78-10.3L215.78-10.3Q215.78-6.65 216.9-5.43 218.03-4.2 220.23-4.2L220.23-4.2Q222.53-4.2 224.25-4.93 225.98-5.65 227.23-6.45L227.23-6.45Q227.63-6.7 227.93-6.85 228.23-7 228.43-7L228.43-7Q228.68-7 228.83-6.8 228.98-6.6 228.98-6.35L228.98-6.35Q228.98-5.45 228.18-4.25 227.38-3.05 225.9-1.9 224.43-0.75 222.43 0.03 220.43 0.8 218.03 0.8Z" opacity="1" transform="matrix(1,0,0,1,0,0)" fill="#9333ea" class="wordmark-text-0" data-fill-palette-color="primary" id="text-0"></path></svg></g></svg></g></svg></g></svg></g><g transform="matrix(1,0,0,1,410.08967324528595,0)"><svg viewBox="0 0 104.97430132017388 85.29155197896121" height="85.29155197896121" width="104.97430132017388"><g><svg xmlns="http://www.w3.org/2000/svg" data-name="Layer 1" viewBox="-0.0003822891845594763 11.998790836111311 128.00150033675618 104.00113629772123" x="0" y="0" id="icon-0" width="104.97430132017388" height="85.29155197896121" class="icon-icon-0" data-fill-palette-color="accent"><path d="M5.928 39.472A10.83 10.83 0 0 0 11.59 40.998 11.2 11.2 0 0 0 14.577 40.62 2 2 0 0 0 15.984 38.457C15.441 34.11 13.751 30.923 10.96 28.982A12.75 12.75 0 0 0 1.54 27.267 2 2 0 0 0 0.034 29.581C0.917 34.3 2.9 37.628 5.928 39.47M8.703 32.285A7.93 7.93 0 0 1 11.65 37 6.56 6.56 0 0 1 7.97 36.032 8.7 8.7 0 0 1 4.5 31.008 7.7 7.7 0 0 1 8.703 32.285" fill="#9333ea" data-fill-palette-color="accent"></path><path d="M11.96 43.984A12.75 12.75 0 0 0 2.541 42.269 2 2 0 0 0 1.034 44.583C1.917 49.302 3.9 52.629 6.928 54.473A10.83 10.83 0 0 0 12.59 56 11.2 11.2 0 0 0 15.577 55.622 2 2 0 0 0 16.984 53.459C16.441 49.112 14.751 45.925 11.96 43.984M8.971 51.034A8.7 8.7 0 0 1 5.5 46.01 7.7 7.7 0 0 1 9.703 47.287 7.93 7.93 0 0 1 12.65 52 6.7 6.7 0 0 1 8.97 51.034" fill="#9333ea" data-fill-palette-color="accent"></path><path d="M25.423 40.62A11.2 11.2 0 0 0 28.411 40.998 10.83 10.83 0 0 0 34.07 39.472C37.102 37.628 39.084 34.3 39.967 29.58A2 2 0 0 0 38.459 27.267 12.74 12.74 0 0 0 29.04 28.982C26.25 30.922 24.56 34.111 24.016 38.457A2 2 0 0 0 25.423 40.62M31.297 32.285A7.7 7.7 0 0 1 35.5 31.008 8.7 8.7 0 0 1 32.029 36.032 7.26 7.26 0 0 1 28.35 37 7.93 7.93 0 0 1 31.297 32.285" fill="#9333ea" data-fill-palette-color="accent"></path><path d="M28.04 43.984C25.249 45.924 23.559 49.112 23.016 53.459A2 2 0 0 0 24.423 55.622 11.2 11.2 0 0 0 27.411 56 10.83 10.83 0 0 0 33.07 54.473C36.102 52.63 38.084 49.302 38.967 44.583A2 2 0 0 0 37.459 42.269 12.75 12.75 0 0 0 28.04 43.984M31.029 51.034A7.04 7.04 0 0 1 27.35 52 7.93 7.93 0 0 1 30.297 47.287 7.7 7.7 0 0 1 34.5 46.01 8.7 8.7 0 0 1 31.029 51.034" fill="#9333ea" data-fill-palette-color="accent"></path><path d="M93.928 39.472A10.83 10.83 0 0 0 99.59 40.998 11.2 11.2 0 0 0 102.577 40.62 2 2 0 0 0 103.984 38.457C103.441 34.11 101.751 30.923 98.96 28.982A12.75 12.75 0 0 0 89.54 27.267 2 2 0 0 0 88.034 29.581C88.916 34.3 90.9 37.628 93.928 39.47M96.703 32.285A7.93 7.93 0 0 1 99.65 37 6.56 6.56 0 0 1 95.97 36.032 8.7 8.7 0 0 1 92.5 31.008 7.7 7.7 0 0 1 96.703 32.285" fill="#9333ea" data-fill-palette-color="accent"></path><path d="M99.96 43.984A12.75 12.75 0 0 0 90.541 42.269 2 2 0 0 0 89.034 44.583C89.917 49.302 91.9 52.629 94.928 54.473A10.83 10.83 0 0 0 100.59 56 11.2 11.2 0 0 0 103.577 55.622 2 2 0 0 0 104.984 53.459C104.441 49.112 102.751 45.925 99.96 43.984M96.971 51.034A8.7 8.7 0 0 1 93.5 46.01 7.7 7.7 0 0 1 97.703 47.287 7.93 7.93 0 0 1 100.65 52 6.7 6.7 0 0 1 96.97 51.034" fill="#9333ea" data-fill-palette-color="accent"></path><path d="M113.423 40.62A11.2 11.2 0 0 0 116.411 40.998 10.83 10.83 0 0 0 122.07 39.472C125.102 37.628 127.084 34.3 127.967 29.58A2 2 0 0 0 126.459 27.267 12.74 12.74 0 0 0 117.04 28.982C114.25 30.922 112.56 34.111 112.016 38.457A2 2 0 0 0 113.423 40.62M119.297 32.285A7.7 7.7 0 0 1 123.5 31.008 8.7 8.7 0 0 1 120.029 36.032 7.2 7.2 0 0 1 116.35 37 7.93 7.93 0 0 1 119.297 32.285" fill="#9333ea" data-fill-palette-color="accent"></path><path d="M116.04 43.984C113.249 45.924 111.559 49.112 111.016 53.459A2 2 0 0 0 112.423 55.622 11.2 11.2 0 0 0 115.411 56 10.83 10.83 0 0 0 121.07 54.473C124.102 52.63 126.084 49.302 126.967 44.583A2 2 0 0 0 125.459 42.269 12.75 12.75 0 0 0 116.04 43.984M119.029 51.034A7 7 0 0 1 115.35 52 7.93 7.93 0 0 1 118.297 47.287 7.7 7.7 0 0 1 122.5 46.009 8.7 8.7 0 0 1 119.029 51.034" fill="#9333ea" data-fill-palette-color="accent"></path><path d="M49.928 39.472A10.83 10.83 0 0 0 55.59 40.998 11.2 11.2 0 0 0 58.577 40.62 2 2 0 0 0 59.984 38.457C59.441 34.11 57.751 30.923 54.96 28.982A12.75 12.75 0 0 0 45.541 27.267 2 2 0 0 0 44.034 29.581C44.917 34.3 46.9 37.628 49.928 39.47M52.703 32.285A7.93 7.93 0 0 1 55.65 37 6.56 6.56 0 0 1 51.97 36.032 8.7 8.7 0 0 1 48.5 31.008 7.7 7.7 0 0 1 52.703 32.285" fill="#9333ea" data-fill-palette-color="accent"></path><path d="M55.96 43.984A12.75 12.75 0 0 0 46.541 42.269 2 2 0 0 0 45.034 44.583C45.917 49.302 47.9 52.629 50.928 54.473A10.83 10.83 0 0 0 56.59 56 11.2 11.2 0 0 0 59.577 55.622 2 2 0 0 0 60.984 53.459C60.441 49.112 58.751 45.925 55.96 43.984M52.971 51.034A8.7 8.7 0 0 1 49.5 46.01 7.7 7.7 0 0 1 53.703 47.287 7.93 7.93 0 0 1 56.65 52 6.7 6.7 0 0 1 52.97 51.034" fill="#9333ea" data-fill-palette-color="accent"></path><path d="M69.423 40.62A11.2 11.2 0 0 0 72.411 40.998 10.83 10.83 0 0 0 78.07 39.472C81.102 37.628 83.084 34.3 83.967 29.58A2 2 0 0 0 82.459 27.267 12.74 12.74 0 0 0 73.04 28.982C70.25 30.922 68.56 34.111 68.016 38.457A2 2 0 0 0 69.423 40.62M75.297 32.285A7.7 7.7 0 0 1 79.5 31.008 8.7 8.7 0 0 1 76.029 36.032 7.24 7.24 0 0 1 72.35 37 7.93 7.93 0 0 1 75.297 32.285" fill="#9333ea" data-fill-palette-color="accent"></path><path d="M72.04 43.984C69.249 45.924 67.559 49.112 67.016 53.459A2 2 0 0 0 68.423 55.622 11.2 11.2 0 0 0 71.411 56 10.83 10.83 0 0 0 77.07 54.473C80.102 52.63 82.084 49.302 82.967 44.583A2 2 0 0 0 81.459 42.269 12.75 12.75 0 0 0 72.04 43.984M75.029 51.034A7 7 0 0 1 71.35 52 7.93 7.93 0 0 1 74.297 47.287 7.7 7.7 0 0 1 78.5 46.01 8.7 8.7 0 0 1 75.029 51.034" fill="#9333ea" data-fill-palette-color="accent"></path><path d="M42.82 88.009A40 40 0 0 1 45.036 84.009H34.264L36.639 80.007H47.779L47.9 79.844C48.86 78.55 49.896 77.306 50.896 76.103L50.973 76.007H39.013L41.39 72.007H51.876A12 12 0 0 0 51.356 70.706L51.211 70.52 51.296 70.593 51.168 70.393A12 12 0 0 1 49.919 68.006H43.764L46.139 64.006H49.462A7.06 7.06 0 0 1 51.5 60.006H22V32.86C25.453 28.768 29.273 19.924 21.302 12.533A2 2 0 0 0 18.647 12.475 14.4 14.4 0 0 0 14.034 21.714C13.764 25.396 15.112 29.053 18 32.598V60.005H2A2 2 0 0 0 2 64.005H24.198L21.448 68.007H2A2 2 0 0 0 2 72.006H18.698L15.948 76.008H2A2 2 0 0 0 2 80.007H13.198L10.448 84.009H2A2 2 0 0 0 2 88.008H7.698L4.948 92.01H2A2 2 0 0 0 2 96.01H40.306A27 27 0 0 1 41.236 92.01H29.514L31.889 88.01ZM18.02 22.049A9.85 9.85 0 0 1 19.973 16.965C23.552 21.51 21.685 26.154 20.072 28.714A10.63 10.63 0 0 1 18.02 22.05M29.052 64.007H41.486L39.111 68.006H26.301ZM23.552 72.006H36.736L34.361 76.008H20.801ZM18.052 80.009H31.986L29.611 84.008H15.301ZM24.862 92.009H9.801L12.552 88.01H27.236Z" fill="#9333ea" data-fill-palette-color="accent"></path><path d="M74.03 78.66C73.047 77.482 72.04 76.269 71.148 75.06A28.5 28.5 0 0 1 73.106 68.554C73.201 68.343 73.4 68.01 73.608 67.655 74.452 66.229 75.608 64.276 75.016 62.294A3.46 3.46 0 0 0 71.01 60.063 6.5 6.5 0 0 0 67.58 62.341 11 11 0 0 1 66.578 63.315L66.492 63.178A4.6 4.6 0 0 0 65.042 61.563C63.47 60.596 61.913 61.13 60.413 63.148 60.301 63.298 60.198 63.445 60.097 63.556A2 2 0 0 1 59.93 63.719 8 8 0 0 1 59.323 63.282 6.8 6.8 0 0 0 57.333 62.12 3 3 0 0 0 54.7 62.513 3.12 3.12 0 0 0 53.382 64.993 5.5 5.5 0 0 0 54.522 68.213L54.736 68.55C54.75 68.57 55.906 70.445 56.796 75.131 55.92 76.314 54.933 77.503 53.972 78.66 53.005 79.822 52.006 81.023 51.11 82.23 47.333 87.31 43.54 93.552 44.045 101.315 44.656 110.73 53.386 115.487 61.31 115.926A49 49 0 0 0 66.763 115.922C74.615 115.487 83.343 110.732 83.953 101.315 84.459 93.549 80.667 87.309 76.89 82.23 75.994 81.024 74.995 79.823 74.03 78.66M63.036 66.269A7 7 0 0 0 63.424 65.798 3.47 3.47 0 0 0 65.276 67.234C67.724 67.973 69.364 66.272 70.454 65.124 70.344 65.315 70.243 65.487 70.166 65.617A14 14 0 0 0 69.459 66.911 30.6 30.6 0 0 0 67.737 72.007H60.203A26.3 26.3 0 0 0 58.72 67.56 3.87 3.87 0 0 0 63.037 66.268M79.962 101.055C79.507 108.078 72.894 111.575 66.541 111.927A46 46 0 0 1 61.458 111.927C55.106 111.576 48.493 108.078 48.038 101.055 47.618 94.602 50.809 89.341 54.32 84.617 55.15 83.497 56.072 82.39 57.047 81.217 58.239 79.782 59.473 78.297 60.55 76.765L61.026 76.09 61.012 76.007S66.935 76.007 66.932 76.03L67.395 76.694C68.488 78.254 69.742 79.762 70.954 81.219 71.928 82.39 72.849 83.499 73.68 84.617 77.19 89.34 80.381 94.599 79.962 101.055" fill="#9333ea" data-fill-palette-color="accent"></path><path d="M126 64.006A2 2 0 0 0 126 60.006H110V32.86C113.453 28.768 117.273 19.924 109.302 12.533A2 2 0 0 0 106.647 12.475 14.4 14.4 0 0 0 102.034 21.714C101.764 25.396 103.112 29.053 106 32.598V60.005H78.389A7 7 0 0 1 78.848 61.145 7.9 7.9 0 0 1 79.152 64.004H81.862L84.235 68.007H77.982A25 25 0 0 1 77.05 69.692C76.93 69.898 76.812 70.086 76.726 70.255A20 20 0 0 0 76.045 72.007H86.61L88.986 76.007H77.026L77.105 76.103C78.105 77.306 79.139 78.549 80.101 79.843L80.22 80.008H91.361L93.736 84.008H82.966A40 40 0 0 1 85.18 88.008H96.11L98.486 92.01H86.764A27 27 0 0 1 87.694 96.01H126A2 2 0 0 0 126 92.01H123.052L120.302 88.01H126A2 2 0 0 0 126 84.009H117.552L114.802 80.007H126A2 2 0 0 0 126 76.008H112.052L109.302 72.006H126A2 2 0 0 0 126 68.007H106.552L103.802 64.005ZM106.02 22.05A9.85 9.85 0 0 1 107.973 16.964C111.552 21.51 109.685 26.154 108.072 28.714A10.63 10.63 0 0 1 106.02 22.05M118.198 92.01H103.138L100.765 88.008H115.448ZM112.698 84.007H98.388L96.015 80.008H109.948ZM107.198 76.008H93.638L91.265 72.006H104.448ZM101.698 68.005H88.888L86.515 64.006H98.948Z" fill="#9333ea" data-fill-palette-color="accent"></path><path d="M62 57.278A6.8 6.8 0 0 1 66 57.6V32.86C69.453 28.767 73.273 19.923 65.302 12.532A2 2 0 0 0 62.647 12.475 14.4 14.4 0 0 0 58.034 21.714C57.764 25.396 59.112 29.053 62 32.598ZM62.02 22.05A9.85 9.85 0 0 1 63.973 16.964C67.552 21.51 65.685 26.154 64.072 28.714A10.63 10.63 0 0 1 62.02 22.05" fill="#9333ea" data-fill-palette-color="accent"></path><path d="M64.695 93.566C63.39 93.162 62.572 92.882 62.223 92.256A1.63 1.63 0 0 1 62.181 90.693 2.42 2.42 0 0 1 64.674 90.017 2.35 2.35 0 0 1 65.816 90.698 2 2 0 0 0 68.686 87.911 6.4 6.4 0 0 0 65.937 86.233V85.008A2 2 0 1 0 61.937 85.008V86.228A5.35 5.35 0 0 0 58.754 88.629 5.63 5.63 0 0 0 58.73 94.206C59.874 96.26 61.89 96.885 63.511 97.388 65.223 97.918 65.752 98.177 65.956 98.868A1.23 1.23 0 0 1 65.186 100.25 2.87 2.87 0 0 1 61.903 99.362 2 2 0 1 0 58.822 101.914 7.04 7.04 0 0 0 61.938 104.066V105.011A2 2 0 1 0 65.938 105.01V104.21A6 6 0 0 0 66.87 103.88 5.184 5.184 0 0 0 69.793 97.739C68.951 94.883 66.491 94.122 64.695 93.565" fill="#9333ea" data-fill-palette-color="accent"></path></svg></g></svg></g></svg></g><defs></defs></svg><rect width="395.52" height="65.49577587362673" fill="none" stroke="none" visibility="hidden"></rect></g></svg></g></svg>